<svg xmlns="http://www.w3.org/2000/svg" xmlns:xlink="http://www.w3.org/1999/xlink" width="56" height="56" viewBox="0 0 56 56"><defs><filter id="Neuo_dark_shade_" width="44" height="44" x="10" y="10" filterUnits="userSpaceOnUse"><feOffset dx="1" dy="1" input="SourceAlpha"/><feGaussianBlur result="blur" stdDeviation="1"/><feFlood flood-opacity=".161"/><feComposite in2="blur" operator="in"/><feComposite in="SourceGraphic"/></filter><filter id="Neuo_white_shade_" width="44" height="44" x="8" y="8" filterUnits="userSpaceOnUse"><feOffset dx="-1" dy="-1" input="SourceAlpha"/><feGaussianBlur result="blur-2" stdDeviation="1"/><feFlood flood-color="#fff"/><feComposite in2="blur-2" operator="in"/><feComposite in="SourceGraphic"/></filter><filter id="Button_background" width="56" height="56" x="0" y="0" filterUnits="userSpaceOnUse"><feOffset dx="-3" dy="-3" input="SourceAlpha"/><feGaussianBlur result="blur-3" stdDeviation="3"/><feFlood flood-color="#fff"/><feComposite in2="blur-3" operator="in"/><feComposite in="SourceGraphic"/></filter><linearGradient id="linear-gradient" x1=".5" x2=".5" y2="1" gradientUnits="objectBoundingBox"><stop offset="0" stop-color="#9b2727"/><stop offset="1" stop-color="#ef0e6d"/></linearGradient></defs><g id="Groupe_119" data-name="Groupe 119" transform="translate(-258 -583)"><g id="Button_round" data-name="Button round" transform="translate(270 595)"><g id="Button"><g filter="url(#Neuo_dark_shade_)" transform="translate(-131 -314) matrix(1, 0, 0, 1, 119, 302)"><rect id="Neuo_dark_shade_2" width="38" height="38" fill="#f5f5f5" data-name="Neuo (dark shade)" rx="19" transform="translate(12 12)"/></g><g filter="url(#Neuo_white_shade_)" transform="translate(-131 -314) matrix(1, 0, 0, 1, 119, 302)"><rect id="Neuo_white_shade_2" width="38" height="38" fill="#f5f5f5" data-name="Neuo (white shade)" rx="19" transform="translate(12 12)"/></g><g filter="url(#Button_background)" transform="translate(-131 -314) matrix(1, 0, 0, 1, 119, 302)"><rect id="Button_background-2" width="38" height="38" fill="#f5f5f5" data-name="Button background" rx="19" transform="translate(12 12)"/></g></g></g><path id="Icon_awesome-user-plus" fill="url(#linear-gradient)" d="M21.565,7.188H19.353V4.977a.555.555,0,0,0-.553-.553H17.695a.555.555,0,0,0-.553.553V7.188H14.93a.555.555,0,0,0-.553.553V8.847a.555.555,0,0,0,.553.553h2.212v2.212a.555.555,0,0,0,.553.553H18.8a.555.555,0,0,0,.553-.553V9.4h2.212a.555.555,0,0,0,.553-.553V7.741A.555.555,0,0,0,21.565,7.188ZM7.741,8.847A4.424,4.424,0,1,0,3.318,4.424,4.423,4.423,0,0,0,7.741,8.847Zm3.1,1.106h-.577a6.016,6.016,0,0,1-5.039,0H4.645A4.646,4.646,0,0,0,0,14.6v1.438a1.659,1.659,0,0,0,1.659,1.659H13.824a1.659,1.659,0,0,0,1.659-1.659V14.6A4.646,4.646,0,0,0,10.838,9.953Z" data-name="Icon awesome-user-plus" transform="translate(279 605.306)"/></g></svg>