<svg xmlns="http://www.w3.org/2000/svg" xmlns:xlink="http://www.w3.org/1999/xlink" width="970" height="116" viewBox="0 0 970 116"><defs><linearGradient id="linear-gradient" x1=".5" x2=".5" y2="1" gradientUnits="objectBoundingBox"><stop offset="0" stop-color="#835836"/><stop offset=".724" stop-color="#986546"/><stop offset="1" stop-color="#785132"/></linearGradient><linearGradient id="linear-gradient-2" y2=".797" xlink:href="#linear-gradient"/><linearGradient id="linear-gradient-3" x1=".5" x2=".5" y2="1" gradientUnits="objectBoundingBox"><stop offset="0" stop-color="#d7d19d"/><stop offset=".675" stop-color="#f7edc9"/><stop offset="1" stop-color="#dfd3a3"/></linearGradient></defs><g id="Groupe_155" data-name="Groupe 155" transform="translate(-2679 16161)"><ellipse id="Ellipse_24" cx="6" cy="31.5" fill="url(#linear-gradient)" data-name="Ellipse 24" rx="6" ry="31.5" transform="translate(3360 -16121)"/><path id="Tracé_63" fill="url(#linear-gradient-2)" d="M.46,2.059,456-3.131v41.7L.46,26Z" data-name="Tracé 63" transform="translate(2755 -16107)"/><rect id="Rectangle_1507" width="154" height="42" fill="url(#linear-gradient-3)" data-name="Rectangle 1507" transform="translate(3211 -16110)"/><path id="Tracé_64" fill="url(#linear-gradient)" d="M4.7.509,242-5.513V70.672L4.534,63.582Z" data-name="Tracé 64" transform="translate(3361.255 -16121.58)"/><path id="Tracé_65" fill="url(#linear-gradient-3)" d="M0,0,61.047-2.05,61,77.972l-61-2.7Z" data-name="Tracé 65" transform="translate(3582 -16127)"/><ellipse id="Ellipse_23" cx="6" cy="21" fill="url(#linear-gradient-3)" data-name="Ellipse 23" rx="6" ry="21" transform="translate(3359 -16110)"/><ellipse id="Ellipse_25" cx="3.5" cy="12" fill="url(#linear-gradient)" data-name="Ellipse 25" rx="3.5" ry="12" transform="translate(2752 -16105)"/><ellipse id="Ellipse_26" cx="6" cy="40" fill="url(#linear-gradient-3)" data-name="Ellipse 26" rx="6" ry="40" transform="translate(3637 -16129)"/><circle id="Ellipse_27" cx="17" cy="17" r="17" fill="#dcd1a3" data-name="Ellipse 27" opacity=".339" transform="translate(2700 -16089)"/><circle id="Ellipse_28" cx="17" cy="17" r="17" fill="#dcd1a3" data-name="Ellipse 28" opacity=".339" transform="translate(2722 -16079)"/><circle id="Ellipse_29" cx="17" cy="17" r="17" fill="#dcd1a3" data-name="Ellipse 29" opacity=".339" transform="translate(2679 -16148)"/><circle id="Ellipse_30" cx="3.5" cy="3.5" r="3.5" fill="#dcd1a3" data-name="Ellipse 30" opacity=".339" transform="translate(2710 -16052)"/><circle id="Ellipse_31" cx="17" cy="17" r="17" fill="#dcd1a3" data-name="Ellipse 31" opacity=".339" transform="translate(2700 -16161)"/><circle id="Ellipse_32" cx="2" cy="2" r="2" fill="#dcd1a3" data-name="Ellipse 32" opacity=".339" transform="translate(2719 -16051)"/><circle id="Ellipse_33" cx="2" cy="2" r="2" fill="#dcd1a3" data-name="Ellipse 33" opacity=".339" transform="translate(2744 -16127)"/><circle id="Ellipse_34" cx="3.5" cy="3.5" r="3.5" fill="#dcd1a3" data-name="Ellipse 34" opacity=".339" transform="translate(2732 -16123)"/></g></svg>