<svg xmlns="http://www.w3.org/2000/svg" xmlns:xlink="http://www.w3.org/1999/xlink" width="56" height="56" viewBox="0 0 56 56"><defs><filter id="Neuo_dark_shade_" width="44" height="44" x="10" y="10" filterUnits="userSpaceOnUse"><feOffset dx="1" dy="1" input="SourceAlpha"/><feGaussianBlur result="blur" stdDeviation="1"/><feFlood flood-opacity=".639"/><feComposite in2="blur" operator="in"/><feComposite in="SourceGraphic"/></filter><filter id="Neuo_white_shade_" width="44" height="44" x="8" y="8" filterUnits="userSpaceOnUse"><feOffset dx="-1" dy="-1" input="SourceAlpha"/><feGaussianBlur result="blur-2" stdDeviation="1"/><feFlood flood-color="#fff" flood-opacity=".255"/><feComposite in2="blur-2" operator="in"/><feComposite in="SourceGraphic"/></filter><filter id="Button_background" width="56" height="56" x="0" y="0" filterUnits="userSpaceOnUse"><feOffset dx="-3" dy="-3" input="SourceAlpha"/><feGaussianBlur result="blur-3" stdDeviation="3"/><feFlood flood-color="#fff" flood-opacity=".008"/><feComposite in2="blur-3" operator="in"/><feComposite in="SourceGraphic"/></filter><linearGradient id="linear-gradient" x1=".5" x2=".5" y2="1" gradientUnits="objectBoundingBox"><stop offset="0" stop-color="#f59595"/><stop offset="1" stop-color="#ef0e6d"/></linearGradient></defs><g id="Groupe_154" data-name="Groupe 154" transform="translate(-1198 -6)"><g id="Button_round" data-name="Button round" transform="translate(1210 18)"><g id="Button" transform="translate(-131 -314)"><g filter="url(#Neuo_dark_shade_)" transform="matrix(1, 0, 0, 1, 119, 302)"><rect id="Neuo_dark_shade_2" width="38" height="38" fill="#3f3f47" data-name="Neuo (dark shade)" rx="19" transform="translate(12 12)"/></g><g filter="url(#Neuo_white_shade_)" transform="matrix(1, 0, 0, 1, 119, 302)"><rect id="Neuo_white_shade_2" width="38" height="38" fill="#3f3f47" data-name="Neuo (white shade)" rx="19" transform="translate(12 12)"/></g><g filter="url(#Button_background)" transform="matrix(1, 0, 0, 1, 119, 302)"><rect id="Button_background-2" width="38" height="38" fill="#3f3f47" data-name="Button background" rx="19" transform="translate(12 12)"/></g><path id="Icon_material-delete" fill="url(#linear-gradient)" d="M8.382,18.616a1.77,1.77,0,0,0,1.765,1.765H17.2a1.77,1.77,0,0,0,1.765-1.765V8.029H8.382ZM19.852,5.382H16.764L15.882,4.5H11.47l-.882.882H7.5V7.147H19.852Z" data-name="Icon material-delete" transform="translate(136.324 320.56)"/></g></g></g></svg>