<svg xmlns="http://www.w3.org/2000/svg" xmlns:xlink="http://www.w3.org/1999/xlink" width="46" height="46" viewBox="0 0 46 46"><defs><filter id="Neuo_dark_shade_" width="44" height="44" x="2" y="2" filterUnits="userSpaceOnUse"><feOffset dx="1" dy="1" input="SourceAlpha"/><feGaussianBlur result="blur" stdDeviation="1"/><feFlood/><feComposite in2="blur" operator="in"/><feComposite in="SourceGraphic"/></filter><filter id="Neuo_white_shade_" width="44" height="44" x="0" y="0" filterUnits="userSpaceOnUse"><feOffset dx="-1" dy="-1" input="SourceAlpha"/><feGaussianBlur result="blur-2" stdDeviation="1"/><feFlood flood-color="#fff" flood-opacity=".231"/><feComposite in2="blur-2" operator="in"/><feComposite in="SourceGraphic"/></filter><linearGradient id="linear-gradient" x1=".5" x2=".5" y2="1" gradientUnits="objectBoundingBox"><stop offset="0" stop-color="#f59595"/><stop offset="1" stop-color="#ef0e6d"/></linearGradient></defs><g id="Groupe_144" data-name="Groupe 144" transform="translate(-183 -466)"><g id="Button_round" data-name="Button round" transform="translate(187 470)"><g id="Button" transform="translate(-131 -314)"><g filter="url(#Neuo_dark_shade_)" transform="matrix(1, 0, 0, 1, 127, 310)"><rect id="Neuo_dark_shade_2" width="38" height="38" fill="#f5f5f5" data-name="Neuo (dark shade)" rx="19" transform="translate(4 4)"/></g><g filter="url(#Neuo_white_shade_)" transform="matrix(1, 0, 0, 1, 127, 310)"><rect id="Neuo_white_shade_2" width="38" height="38" fill="#3f3f47" data-name="Neuo (white shade)" rx="19" transform="translate(4 4)"/></g><rect id="Button_background" width="38" height="38" fill="#3f3f47" data-name="Button background" rx="19" transform="translate(131 314)"/><path id="Icon_awesome-user-plus" fill="url(#linear-gradient)" d="M21.565,7.188H19.353V4.977a.555.555,0,0,0-.553-.553H17.695a.555.555,0,0,0-.553.553V7.188H14.93a.555.555,0,0,0-.553.553V8.847a.555.555,0,0,0,.553.553h2.212v2.212a.555.555,0,0,0,.553.553H18.8a.555.555,0,0,0,.553-.553V9.4h2.212a.555.555,0,0,0,.553-.553V7.741A.555.555,0,0,0,21.565,7.188ZM7.741,8.847A4.424,4.424,0,1,0,3.318,4.424,4.423,4.423,0,0,0,7.741,8.847Zm3.1,1.106h-.577a6.016,6.016,0,0,1-5.039,0H4.645A4.646,4.646,0,0,0,0,14.6v1.438a1.659,1.659,0,0,0,1.659,1.659H13.824a1.659,1.659,0,0,0,1.659-1.659V14.6A4.646,4.646,0,0,0,10.838,9.953Z" data-name="Icon awesome-user-plus" transform="translate(141 324.152)"/></g></g></g></svg>