<svg xmlns="http://www.w3.org/2000/svg" xmlns:xlink="http://www.w3.org/1999/xlink" width="46" height="46" viewBox="0 0 46 46">
  <defs>
    <filter id="Neuo_dark_shade_" x="2" y="2" width="44" height="44" filterUnits="userSpaceOnUse">
      <feOffset dx="1" dy="1" input="SourceAlpha"/>
      <feGaussianBlur stdDeviation="1" result="blur"/>
      <feFlood/>
      <feComposite operator="in" in2="blur"/>
      <feComposite in="SourceGraphic"/>
    </filter>
    <filter id="Neuo_white_shade_" x="0" y="0" width="44" height="44" filterUnits="userSpaceOnUse">
      <feOffset dx="-1" dy="-1" input="SourceAlpha"/>
      <feGaussianBlur stdDeviation="1" result="blur-2"/>
      <feFlood flood-color="#fff" flood-opacity="0.231"/>
      <feComposite operator="in" in2="blur-2"/>
      <feComposite in="SourceGraphic"/>
    </filter>
    <linearGradient id="linear-gradient" x1="0.5" x2="0.5" y2="1" gradientUnits="objectBoundingBox">
      <stop offset="0" stop-color="#fff"/>
      <stop offset="1" stop-color="#ffe200"/>
    </linearGradient>
  </defs>
  <g id="Groupe_136" data-name="Groupe 136" transform="translate(-183 -466)">
    <g id="Button_round" data-name="Button round" transform="translate(187 470)">
      <g id="Button" transform="translate(-131 -314)">
        <g transform="matrix(1, 0, 0, 1, 127, 310)" filter="url(#Neuo_dark_shade_)">
          <rect id="Neuo_dark_shade_2" data-name="Neuo (dark shade)" width="38" height="38" rx="19" transform="translate(4 4)" fill="#f5f5f5"/>
        </g>
        <g transform="matrix(1, 0, 0, 1, 127, 310)" filter="url(#Neuo_white_shade_)">
          <rect id="Neuo_white_shade_2" data-name="Neuo (white shade)" width="38" height="38" rx="19" transform="translate(4 4)" fill="#3f3f47"/>
        </g>
        <rect id="Button_background" data-name="Button background" width="38" height="38" rx="19" transform="translate(131 314)" fill="#3f3f47"/>
      </g>
    </g>
    <path id="Icon_material-edit" data-name="Icon material-edit" d="M4.5,18.158v3.595H8.095l10.6-10.6L15.1,7.556ZM21.476,8.371a.955.955,0,0,0,0-1.352L19.233,4.777a.955.955,0,0,0-1.352,0L16.127,6.531l3.595,3.595Z" transform="translate(192.872 475.875)" fill="url(#linear-gradient)"/>
  </g>
</svg>
