<svg xmlns="http://www.w3.org/2000/svg" xmlns:xlink="http://www.w3.org/1999/xlink" width="46" height="46" viewBox="0 0 46 46"><defs><filter id="Neuo_dark_shade_" width="44" height="44" x="2" y="2" filterUnits="userSpaceOnUse"><feOffset dx="1" dy="1" input="SourceAlpha"/><feGaussianBlur result="blur" stdDeviation="1"/><feFlood/><feComposite in2="blur" operator="in"/><feComposite in="SourceGraphic"/></filter><filter id="Neuo_white_shade_" width="44" height="44" x="0" y="0" filterUnits="userSpaceOnUse"><feOffset dx="-1" dy="-1" input="SourceAlpha"/><feGaussianBlur result="blur-2" stdDeviation="1"/><feFlood flood-color="#fff" flood-opacity=".231"/><feComposite in2="blur-2" operator="in"/><feComposite in="SourceGraphic"/></filter><linearGradient id="linear-gradient" x1=".5" x2=".5" y2="1" gradientUnits="objectBoundingBox"><stop offset="0" stop-color="#9b2727"/><stop offset="1" stop-color="#ef0e6d"/></linearGradient></defs><g id="Groupe_149" data-name="Groupe 149" transform="translate(-183 -466)"><g id="Button_round" data-name="Button round" transform="translate(187 470)"><g id="Button" transform="translate(-131 -314)"><g filter="url(#Neuo_dark_shade_)" transform="matrix(1, 0, 0, 1, 127, 310)"><rect id="Neuo_dark_shade_2" width="38" height="38" fill="#f5f5f5" data-name="Neuo (dark shade)" rx="19" transform="translate(4 4)"/></g><g filter="url(#Neuo_white_shade_)" transform="matrix(1, 0, 0, 1, 127, 310)"><rect id="Neuo_white_shade_2" width="38" height="38" fill="#3f3f47" data-name="Neuo (white shade)" rx="19" transform="translate(4 4)"/></g><rect id="Button_background" width="38" height="38" fill="#3f3f47" data-name="Button background" rx="19" transform="translate(131 314)"/></g></g><g id="Button_round_pressed_" data-name="Button round (pressed)" transform="translate(198.5 483.787)"><g id="Button_pressed_" data-name="Button (pressed)" transform="translate(-64 -407)"><path id="Icon_ionic-ios-heart" fill="url(#linear-gradient)" d="M14.337,3.938H14.3a4.1,4.1,0,0,0-3.425,1.875A4.1,4.1,0,0,0,7.45,3.938H7.413A4.077,4.077,0,0,0,3.375,8.012,8.777,8.777,0,0,0,5.1,12.8a30.2,30.2,0,0,0,5.776,5.564A30.2,30.2,0,0,0,16.651,12.8a8.777,8.777,0,0,0,1.724-4.785A4.077,4.077,0,0,0,14.337,3.938Z" data-name="Icon ionic-ios-heart" transform="translate(60.625 403.063)"/></g></g></g></svg>