<svg xmlns="http://www.w3.org/2000/svg" xmlns:xlink="http://www.w3.org/1999/xlink" width="46" height="46" viewBox="0 0 46 46"><defs><filter id="Neuo_dark_shade_" width="44" height="44" x="2" y="2" filterUnits="userSpaceOnUse"><feOffset dx="1" dy="1" input="SourceAlpha"/><feGaussianBlur result="blur" stdDeviation="1"/><feFlood/><feComposite in2="blur" operator="in"/><feComposite in="SourceGraphic"/></filter><filter id="Neuo_white_shade_" width="44" height="44" x="0" y="0" filterUnits="userSpaceOnUse"><feOffset dx="-1" dy="-1" input="SourceAlpha"/><feGaussianBlur result="blur-2" stdDeviation="1"/><feFlood flood-color="#fff" flood-opacity=".231"/><feComposite in2="blur-2" operator="in"/><feComposite in="SourceGraphic"/></filter><linearGradient id="linear-gradient" x1=".5" x2=".5" y2="1" gradientUnits="objectBoundingBox"><stop offset="0" stop-color="#a3c1f2"/><stop offset="1" stop-color="#1484bf"/></linearGradient></defs><g id="Groupe_133" data-name="Groupe 133" transform="translate(-183 -466)"><g id="Button_round" data-name="Button round" transform="translate(187 470)"><g id="Button" transform="translate(-131 -314)"><g filter="url(#Neuo_dark_shade_)" transform="matrix(1, 0, 0, 1, 127, 310)"><rect id="Neuo_dark_shade_2" width="38" height="38" fill="#f5f5f5" data-name="Neuo (dark shade)" rx="19" transform="translate(4 4)"/></g><g filter="url(#Neuo_white_shade_)" transform="matrix(1, 0, 0, 1, 127, 310)"><rect id="Neuo_white_shade_2" width="38" height="38" fill="#3f3f47" data-name="Neuo (white shade)" rx="19" transform="translate(4 4)"/></g><rect id="Button_background" width="38" height="38" fill="#3f3f47" data-name="Button background" rx="19" transform="translate(131 314)"/></g></g><path id="Icon_material-edit" fill="url(#linear-gradient)" d="M4.5,18.158v3.595H8.095l10.6-10.6L15.1,7.556ZM21.476,8.371a.955.955,0,0,0,0-1.352L19.233,4.777a.955.955,0,0,0-1.352,0L16.127,6.531l3.595,3.595Z" data-name="Icon material-edit" transform="translate(192.872 475.875)"/></g></svg>