<svg xmlns="http://www.w3.org/2000/svg" xmlns:xlink="http://www.w3.org/1999/xlink" width="46" height="46" viewBox="0 0 46 46"><defs><filter id="Neuo_dark_shade_" width="44" height="44" x="2" y="2" filterUnits="userSpaceOnUse"><feOffset dx="1" dy="1" input="SourceAlpha"/><feGaussianBlur result="blur" stdDeviation="1"/><feFlood/><feComposite in2="blur" operator="in"/><feComposite in="SourceGraphic"/></filter><filter id="Neuo_white_shade_" width="44" height="44" x="0" y="0" filterUnits="userSpaceOnUse"><feOffset dx="-1" dy="-1" input="SourceAlpha"/><feGaussianBlur result="blur-2" stdDeviation="1"/><feFlood flood-color="#fff" flood-opacity=".231"/><feComposite in2="blur-2" operator="in"/><feComposite in="SourceGraphic"/></filter></defs><g id="Groupe_150" data-name="Groupe 150" transform="translate(-183 -466)"><g id="Button_round" data-name="Button round" transform="translate(187 470)"><g id="Button" transform="translate(-131 -314)"><g filter="url(#Neuo_dark_shade_)" transform="matrix(1, 0, 0, 1, 127, 310)"><rect id="Neuo_dark_shade_2" width="38" height="38" fill="#f5f5f5" data-name="Neuo (dark shade)" rx="19" transform="translate(4 4)"/></g><g filter="url(#Neuo_white_shade_)" transform="matrix(1, 0, 0, 1, 127, 310)"><rect id="Neuo_white_shade_2" width="38" height="38" fill="#3f3f47" data-name="Neuo (white shade)" rx="19" transform="translate(4 4)"/></g><rect id="Button_background" width="38" height="38" fill="#3f3f47" data-name="Button background" rx="19" transform="translate(131 314)"/></g><path id="Icon_ionic-ios-heart-empty" fill="#fff" d="M14.337,3.938H14.3a4.1,4.1,0,0,0-3.425,1.875A4.1,4.1,0,0,0,7.45,3.938H7.413A4.077,4.077,0,0,0,3.375,8.012,8.777,8.777,0,0,0,5.1,12.8a30.2,30.2,0,0,0,5.776,5.564A30.2,30.2,0,0,0,16.651,12.8a8.777,8.777,0,0,0,1.724-4.785A4.077,4.077,0,0,0,14.337,3.938Zm1.5,8.264a27.656,27.656,0,0,1-4.962,4.889A27.7,27.7,0,0,1,5.913,12.2,7.779,7.779,0,0,1,4.385,8.012,3.059,3.059,0,0,1,7.421,4.951h.032a3.023,3.023,0,0,1,1.482.389,3.151,3.151,0,0,1,1.1,1.028,1.013,1.013,0,0,0,1.695,0,3.182,3.182,0,0,1,1.1-1.028A3.023,3.023,0,0,1,14.3,4.951h.032a3.059,3.059,0,0,1,3.036,3.061A7.877,7.877,0,0,1,15.837,12.2Z" data-name="Icon ionic-ios-heart-empty" transform="translate(8.125 9.851)"/></g></g></svg>