<svg xmlns="http://www.w3.org/2000/svg" xmlns:xlink="http://www.w3.org/1999/xlink" width="56" height="56" viewBox="0 0 56 56">
  <defs>
    <filter id="Neuo_dark_shade_" x="10" y="10" width="44" height="44" filterUnits="userSpaceOnUse">
      <feOffset dx="1" dy="1" input="SourceAlpha"/>
      <feGaussianBlur stdDeviation="1" result="blur"/>
      <feFlood flood-opacity="0.161"/>
      <feComposite operator="in" in2="blur"/>
      <feComposite in="SourceGraphic"/>
    </filter>
    <filter id="Neuo_white_shade_" x="8" y="8" width="44" height="44" filterUnits="userSpaceOnUse">
      <feOffset dx="-1" dy="-1" input="SourceAlpha"/>
      <feGaussianBlur stdDeviation="1" result="blur-2"/>
      <feFlood flood-color="#fff"/>
      <feComposite operator="in" in2="blur-2"/>
      <feComposite in="SourceGraphic"/>
    </filter>
    <filter id="Button_background" x="0" y="0" width="56" height="56" filterUnits="userSpaceOnUse">
      <feOffset dx="-3" dy="-3" input="SourceAlpha"/>
      <feGaussianBlur stdDeviation="3" result="blur-3"/>
      <feFlood flood-color="#fff"/>
      <feComposite operator="in" in2="blur-3"/>
      <feComposite in="SourceGraphic"/>
    </filter>
    <linearGradient id="linear-gradient" x1="-0.196" x2="1.143" y2="1" gradientUnits="objectBoundingBox">
      <stop offset="0" stop-color="#9b2727"/>
      <stop offset="1" stop-color="#ef0e6d"/>
    </linearGradient>
  </defs>
  <g id="Button_round" data-name="Button round" transform="translate(12 12)">
    <g id="Button">
      <g id="Groupe_111" data-name="Groupe 111">
        <g transform="matrix(1, 0, 0, 1, -12, -12)" filter="url(#Neuo_dark_shade_)">
          <rect id="Neuo_dark_shade_2" data-name="Neuo (dark shade)" width="38" height="38" rx="19" transform="translate(12 12)" fill="#f5f5f5"/>
        </g>
        <g transform="matrix(1, 0, 0, 1, -12, -12)" filter="url(#Neuo_white_shade_)">
          <rect id="Neuo_white_shade_2" data-name="Neuo (white shade)" width="38" height="38" rx="19" transform="translate(12 12)" fill="#f5f5f5"/>
        </g>
        <g transform="matrix(1, 0, 0, 1, -12, -12)" filter="url(#Button_background)">
          <rect id="Button_background-2" data-name="Button background" width="38" height="38" rx="19" transform="translate(12 12)" fill="#f5f5f5"/>
        </g>
      </g>
      <path id="Icon_material-delete" data-name="Icon material-delete" d="M8.375,19.124a1.8,1.8,0,0,0,1.751,1.828h7a1.8,1.8,0,0,0,1.751-1.828V8.156H8.375Zm11.38-13.71H16.692L15.816,4.5H11.439l-.875.914H7.5V7.242H19.756Z" transform="translate(5.372 6.274)" fill="url(#linear-gradient)"/>
    </g>
  </g>
</svg>
