<svg xmlns="http://www.w3.org/2000/svg" xmlns:xlink="http://www.w3.org/1999/xlink" width="56" height="56" viewBox="0 0 56 56"><defs><filter id="Neuo_dark_shade_" width="44" height="44" x="10" y="10" filterUnits="userSpaceOnUse"><feOffset dx="1" dy="1" input="SourceAlpha"/><feGaussianBlur result="blur" stdDeviation="1"/><feFlood flood-opacity=".161"/><feComposite in2="blur" operator="in"/><feComposite in="SourceGraphic"/></filter><filter id="Neuo_white_shade_" width="44" height="44" x="8" y="8" filterUnits="userSpaceOnUse"><feOffset dx="-1" dy="-1" input="SourceAlpha"/><feGaussianBlur result="blur-2" stdDeviation="1"/><feFlood flood-color="#fff"/><feComposite in2="blur-2" operator="in"/><feComposite in="SourceGraphic"/></filter><filter id="Button_background" width="56" height="56" x="0" y="0" filterUnits="userSpaceOnUse"><feOffset dx="-3" dy="-3" input="SourceAlpha"/><feGaussianBlur result="blur-3" stdDeviation="3"/><feFlood flood-color="#fff"/><feComposite in2="blur-3" operator="in"/><feComposite in="SourceGraphic"/></filter><linearGradient id="linear-gradient" x1="-.196" x2="1.143" y2="1" gradientUnits="objectBoundingBox"><stop offset="0" stop-color="#9b2727"/><stop offset="1" stop-color="#ef0e6d"/></linearGradient></defs><g id="Button_round" data-name="Button round" transform="translate(12 12)"><g id="Button"><g id="Groupe_111" data-name="Groupe 111"><g filter="url(#Neuo_dark_shade_)" transform="matrix(1, 0, 0, 1, -12, -12)"><rect id="Neuo_dark_shade_2" width="38" height="38" fill="#f5f5f5" data-name="Neuo (dark shade)" rx="19" transform="translate(12 12)"/></g><g filter="url(#Neuo_white_shade_)" transform="matrix(1, 0, 0, 1, -12, -12)"><rect id="Neuo_white_shade_2" width="38" height="38" fill="#f5f5f5" data-name="Neuo (white shade)" rx="19" transform="translate(12 12)"/></g><g filter="url(#Button_background)" transform="matrix(1, 0, 0, 1, -12, -12)"><rect id="Button_background-2" width="38" height="38" fill="#f5f5f5" data-name="Button background" rx="19" transform="translate(12 12)"/></g></g><path id="Icon_material-delete" fill="url(#linear-gradient)" d="M8.375,19.124a1.8,1.8,0,0,0,1.751,1.828h7a1.8,1.8,0,0,0,1.751-1.828V8.156H8.375Zm11.38-13.71H16.692L15.816,4.5H11.439l-.875.914H7.5V7.242H19.756Z" data-name="Icon material-delete" transform="translate(5.372 6.274)"/></g></g></svg>