<svg xmlns="http://www.w3.org/2000/svg" xmlns:xlink="http://www.w3.org/1999/xlink" width="56" height="56" viewBox="0 0 56 56">
  <defs>
    <filter id="Neuo_dark_shade_" x="10" y="10" width="44" height="44" filterUnits="userSpaceOnUse">
      <feOffset dx="1" dy="1" input="SourceAlpha"/>
      <feGaussianBlur stdDeviation="1" result="blur"/>
      <feFlood flood-opacity="0.161"/>
      <feComposite operator="in" in2="blur"/>
      <feComposite in="SourceGraphic"/>
    </filter>
    <filter id="Neuo_white_shade_" x="8" y="8" width="44" height="44" filterUnits="userSpaceOnUse">
      <feOffset dx="-1" dy="-1" input="SourceAlpha"/>
      <feGaussianBlur stdDeviation="1" result="blur-2"/>
      <feFlood flood-color="#fff"/>
      <feComposite operator="in" in2="blur-2"/>
      <feComposite in="SourceGraphic"/>
    </filter>
    <filter id="Button_background" x="0" y="0" width="56" height="56" filterUnits="userSpaceOnUse">
      <feOffset dx="-3" dy="-3" input="SourceAlpha"/>
      <feGaussianBlur stdDeviation="3" result="blur-3"/>
      <feFlood flood-color="#fff"/>
      <feComposite operator="in" in2="blur-3"/>
      <feComposite in="SourceGraphic"/>
    </filter>
  </defs>
  <g id="Groupe_153" data-name="Groupe 153" transform="translate(-1247 -6)">
    <g id="Button_round" data-name="Button round" transform="translate(1259 18)">
      <g id="Button" transform="translate(-131 -314)">
        <g transform="matrix(1, 0, 0, 1, 119, 302)" filter="url(#Neuo_dark_shade_)">
          <rect id="Neuo_dark_shade_2" data-name="Neuo (dark shade)" width="38" height="38" rx="19" transform="translate(12 12)" fill="#f5f5f5"/>
        </g>
        <g transform="matrix(1, 0, 0, 1, 119, 302)" filter="url(#Neuo_white_shade_)">
          <rect id="Neuo_white_shade_2" data-name="Neuo (white shade)" width="38" height="38" rx="19" transform="translate(12 12)" fill="#f5f5f5"/>
        </g>
        <g transform="matrix(1, 0, 0, 1, 119, 302)" filter="url(#Button_background)">
          <rect id="Button_background-2" data-name="Button background" width="38" height="38" rx="19" transform="translate(12 12)" fill="#f5f5f5"/>
        </g>
      </g>
      <path id="Icon_material-delete" data-name="Icon material-delete" d="M8.37,18.413a1.744,1.744,0,0,0,1.739,1.739h6.957A1.744,1.744,0,0,0,18.8,18.413V7.978H8.37ZM19.674,5.37H16.631l-.87-.87H11.413l-.87.87H7.5V7.109H19.674Z" transform="translate(5.413 6.675)" fill="none" stroke="#767575" stroke-width="1"/>
    </g>
  </g>
</svg>
