<svg xmlns="http://www.w3.org/2000/svg" xmlns:xlink="http://www.w3.org/1999/xlink" width="56" height="56" viewBox="0 0 56 56"><defs><filter id="Neuo_dark_shade_" width="44" height="44" x="10" y="10" filterUnits="userSpaceOnUse"><feOffset dx="1" dy="1" input="SourceAlpha"/><feGaussianBlur result="blur" stdDeviation="1"/><feFlood flood-opacity=".161"/><feComposite in2="blur" operator="in"/><feComposite in="SourceGraphic"/></filter><filter id="Neuo_white_shade_" width="44" height="44" x="8" y="8" filterUnits="userSpaceOnUse"><feOffset dx="-1" dy="-1" input="SourceAlpha"/><feGaussianBlur result="blur-2" stdDeviation="1"/><feFlood flood-color="#fff"/><feComposite in2="blur-2" operator="in"/><feComposite in="SourceGraphic"/></filter><filter id="Button_background" width="56" height="56" x="0" y="0" filterUnits="userSpaceOnUse"><feOffset dx="-3" dy="-3" input="SourceAlpha"/><feGaussianBlur result="blur-3" stdDeviation="3"/><feFlood flood-color="#fff"/><feComposite in2="blur-3" operator="in"/><feComposite in="SourceGraphic"/></filter><linearGradient id="linear-gradient" x1=".5" x2=".5" y2="1" gradientUnits="objectBoundingBox"><stop offset="0" stop-color="#ffb37b"/><stop offset="1" stop-color="#ffe200"/></linearGradient></defs><g id="Groupe_122" data-name="Groupe 122" transform="translate(-204 -583)"><g id="Button_round" data-name="Button round" transform="translate(216 595)"><g id="Button"><g filter="url(#Neuo_dark_shade_)" transform="translate(-131 -314) matrix(1, 0, 0, 1, 119, 302)"><rect id="Neuo_dark_shade_2" width="38" height="38" fill="#f5f5f5" data-name="Neuo (dark shade)" rx="19" transform="translate(12 12)"/></g><g filter="url(#Neuo_white_shade_)" transform="translate(-131 -314) matrix(1, 0, 0, 1, 119, 302)"><rect id="Neuo_white_shade_2" width="38" height="38" fill="#f5f5f5" data-name="Neuo (white shade)" rx="19" transform="translate(12 12)"/></g><g filter="url(#Button_background)" transform="translate(-131 -314) matrix(1, 0, 0, 1, 119, 302)"><rect id="Button_background-2" width="38" height="38" fill="#f5f5f5" data-name="Button background" rx="19" transform="translate(12 12)"/></g></g></g><path id="Icon_material-edit" fill="url(#linear-gradient)" d="M4.5,18.158v3.595H8.095l10.6-10.6L15.1,7.556ZM21.476,8.371a.955.955,0,0,0,0-1.352L19.233,4.777a.955.955,0,0,0-1.352,0L16.127,6.531l3.595,3.595Z" data-name="Icon material-edit" transform="translate(222.5 600.251)"/></g></svg>