<svg xmlns="http://www.w3.org/2000/svg" xmlns:xlink="http://www.w3.org/1999/xlink" width="56" height="56" viewBox="0 0 56 56"><defs><filter id="Neuo_dark_shade_" width="44" height="44" x="10" y="10" filterUnits="userSpaceOnUse"><feOffset dx="1" dy="1" input="SourceAlpha"/><feGaussianBlur result="blur" stdDeviation="1"/><feFlood flood-opacity=".161"/><feComposite in2="blur" operator="in"/><feComposite in="SourceGraphic"/></filter><filter id="Neuo_white_shade_" width="44" height="44" x="8" y="8" filterUnits="userSpaceOnUse"><feOffset dx="-1" dy="-1" input="SourceAlpha"/><feGaussianBlur result="blur-2" stdDeviation="1"/><feFlood flood-color="#fff"/><feComposite in2="blur-2" operator="in"/><feComposite in="SourceGraphic"/></filter><filter id="Button_background" width="56" height="56" x="0" y="0" filterUnits="userSpaceOnUse"><feOffset dx="-3" dy="-3" input="SourceAlpha"/><feGaussianBlur result="blur-3" stdDeviation="3"/><feFlood flood-color="#fff"/><feComposite in2="blur-3" operator="in"/><feComposite in="SourceGraphic"/></filter><linearGradient id="linear-gradient" x2=".933" y2="1" gradientUnits="objectBoundingBox"><stop offset="0" stop-color="#a657d5"/><stop offset="1" stop-color="#7379eb"/></linearGradient></defs><g id="Button_round" data-name="Button round" transform="translate(12 12)"><g id="Button"><g id="Groupe_111" data-name="Groupe 111"><g filter="url(#Neuo_dark_shade_)" transform="matrix(1, 0, 0, 1, -12, -12)"><rect id="Neuo_dark_shade_2" width="38" height="38" fill="#f5f5f5" data-name="Neuo (dark shade)" rx="19" transform="translate(12 12)"/></g><g filter="url(#Neuo_white_shade_)" transform="matrix(1, 0, 0, 1, -12, -12)"><rect id="Neuo_white_shade_2" width="38" height="38" fill="#f5f5f5" data-name="Neuo (white shade)" rx="19" transform="translate(12 12)"/></g><g filter="url(#Button_background)" transform="matrix(1, 0, 0, 1, -12, -12)"><rect id="Button_background-2" width="38" height="38" fill="#f5f5f5" data-name="Button background" rx="19" transform="translate(12 12)"/></g></g><path id="Icon_feather-edit-2" fill="url(#linear-gradient)" d="M16.063,3.979a2.463,2.463,0,0,1,3.484,3.484L7.79,19.219,3,20.526l1.306-4.79Z" data-name="Icon feather-edit-2" transform="translate(7.374 7.217)"/></g></g></svg>