<svg xmlns="http://www.w3.org/2000/svg" xmlns:xlink="http://www.w3.org/1999/xlink" width="56" height="56" viewBox="0 0 56 56">
  <defs>
    <filter id="Neuo_dark_shade_" x="10" y="10" width="44" height="44" filterUnits="userSpaceOnUse">
      <feOffset dx="1" dy="1" input="SourceAlpha"/>
      <feGaussianBlur stdDeviation="1" result="blur"/>
      <feFlood flood-opacity="0.161"/>
      <feComposite operator="in" in2="blur"/>
      <feComposite in="SourceGraphic"/>
    </filter>
    <filter id="Neuo_white_shade_" x="8" y="8" width="44" height="44" filterUnits="userSpaceOnUse">
      <feOffset dx="-1" dy="-1" input="SourceAlpha"/>
      <feGaussianBlur stdDeviation="1" result="blur-2"/>
      <feFlood flood-color="#fff"/>
      <feComposite operator="in" in2="blur-2"/>
      <feComposite in="SourceGraphic"/>
    </filter>
    <filter id="Button_background" x="0" y="0" width="56" height="56" filterUnits="userSpaceOnUse">
      <feOffset dx="-3" dy="-3" input="SourceAlpha"/>
      <feGaussianBlur stdDeviation="3" result="blur-3"/>
      <feFlood flood-color="#fff"/>
      <feComposite operator="in" in2="blur-3"/>
      <feComposite in="SourceGraphic"/>
    </filter>
    <linearGradient id="linear-gradient" x2="0.933" y2="1" gradientUnits="objectBoundingBox">
      <stop offset="0" stop-color="#a657d5"/>
      <stop offset="1" stop-color="#7379eb"/>
    </linearGradient>
  </defs>
  <g id="Button_round" data-name="Button round" transform="translate(12 12)">
    <g id="Button">
      <g id="Groupe_111" data-name="Groupe 111">
        <g transform="matrix(1, 0, 0, 1, -12, -12)" filter="url(#Neuo_dark_shade_)">
          <rect id="Neuo_dark_shade_2" data-name="Neuo (dark shade)" width="38" height="38" rx="19" transform="translate(12 12)" fill="#f5f5f5"/>
        </g>
        <g transform="matrix(1, 0, 0, 1, -12, -12)" filter="url(#Neuo_white_shade_)">
          <rect id="Neuo_white_shade_2" data-name="Neuo (white shade)" width="38" height="38" rx="19" transform="translate(12 12)" fill="#f5f5f5"/>
        </g>
        <g transform="matrix(1, 0, 0, 1, -12, -12)" filter="url(#Button_background)">
          <rect id="Button_background-2" data-name="Button background" width="38" height="38" rx="19" transform="translate(12 12)" fill="#f5f5f5"/>
        </g>
      </g>
      <path id="Icon_feather-edit-2" data-name="Icon feather-edit-2" d="M16.063,3.979a2.463,2.463,0,0,1,3.484,3.484L7.79,19.219,3,20.526l1.306-4.79Z" transform="translate(7.374 7.217)" fill="url(#linear-gradient)"/>
    </g>
  </g>
</svg>
