<svg xmlns="http://www.w3.org/2000/svg" xmlns:xlink="http://www.w3.org/1999/xlink" width="57.5" height="55.5" viewBox="0 0 57.5 55.5"><defs><filter id="Neuo_dark_shade_" width="56" height="54" x="1.5" y="1.5" filterUnits="userSpaceOnUse"><feOffset dx="2" dy="2" input="SourceAlpha"/><feGaussianBlur result="blur" stdDeviation="1"/><feFlood flood-opacity=".161"/><feComposite in2="blur" operator="in"/><feComposite in="SourceGraphic"/></filter><filter id="Neuo_white_shade_" width="53" height="51" x="0" y="0" filterUnits="userSpaceOnUse"><feOffset dx="-1" dy="-1" input="SourceAlpha"/><feGaussianBlur result="blur-2" stdDeviation=".5"/><feFlood flood-color="#fff"/><feComposite in2="blur-2" operator="in"/><feComposite in="SourceGraphic"/></filter><linearGradient id="linear-gradient" x1=".5" x2=".5" y2="1" gradientUnits="objectBoundingBox"><stop offset="0" stop-color="#a657d5"/><stop offset="1" stop-color="#7379eb"/></linearGradient></defs><g id="Groupe_78" data-name="Groupe 78" transform="translate(-615.5 -10.5)"><g id="Button_round_pressed_" data-name="Button round (pressed)" transform="translate(618 13)"><g id="Button_pressed_" data-name="Button (pressed)" transform="translate(0 0)"><g filter="url(#Neuo_dark_shade_)" transform="matrix(1, 0, 0, 1, -2.5, -2.5)"><path id="Neuo_dark_shade_2" fill="#f5f5f5" d="M26,48H24A24.006,24.006,0,0,1,14.658,1.886,23.848,23.848,0,0,1,24,0h2a24.006,24.006,0,0,1,9.342,46.114A23.849,23.849,0,0,1,26,48ZM24.214,5.143a18.857,18.857,0,1,0,0,37.715h1.572a18.857,18.857,0,1,0,0-37.715Z" data-name="Neuo (dark shade)" transform="translate(2.5 2.5)"/></g><g filter="url(#Neuo_white_shade_)" transform="matrix(1, 0, 0, 1, -2.5, -2.5)"><path id="Neuo_white_shade_2" fill="#f5f5f5" d="M26,48H24A24.006,24.006,0,0,1,14.658,1.886,23.848,23.848,0,0,1,24,0h2a24.006,24.006,0,0,1,9.342,46.114A23.849,23.849,0,0,1,26,48ZM24.214,5.143a18.857,18.857,0,1,0,0,37.715h1.572a18.857,18.857,0,1,0,0-37.715Z" data-name="Neuo (white shade)" transform="translate(2.5 2.5)"/></g><rect id="Button_background" width="34" height="32" fill="#f5f5f5" data-name="Button background" rx="16" transform="translate(8 8)"/></g></g><path id="Icon_ionic-md-home" fill="url(#linear-gradient)" d="M12,24.39V17.76H17.18v6.63h5.263V14.445h3.365L14.592,4.5,3.375,14.445H6.74V24.39Z" data-name="Icon ionic-md-home" transform="translate(629.135 22.631)"/></g></svg>