<svg xmlns="http://www.w3.org/2000/svg" xmlns:xlink="http://www.w3.org/1999/xlink" width="360.999" height="279.5" viewBox="0 0 360.999 279.5"><defs><filter id="Rectangle_91" width="74" height="260" x="51.5" y="6" filterUnits="userSpaceOnUse"><feOffset dx="3" dy="3" input="SourceAlpha"/><feGaussianBlur result="blur" stdDeviation="4.5"/><feFlood flood-color="#bababa" flood-opacity=".514"/><feComposite in2="blur" operator="in"/><feComposite in="SourceGraphic"/></filter><filter id="Rectangle_92" width="74" height="260" x="45.5" y="0" filterUnits="userSpaceOnUse"><feOffset dx="-3" dy="-3" input="SourceAlpha"/><feGaussianBlur result="blur-2" stdDeviation="4.5"/><feFlood flood-color="#fff" flood-opacity=".514"/><feComposite in2="blur-2" operator="in"/><feComposite in="SourceGraphic"/></filter><linearGradient id="linear-gradient" x1=".144" x2=".923" y1=".5" y2=".5" gradientUnits="objectBoundingBox"><stop offset="0" stop-color="#405d8d"/><stop offset="1" stop-color="#1484bf"/></linearGradient><filter id="Rectangle_93" width="68" height="184" x="52" y="75.5" filterUnits="userSpaceOnUse"><feOffset input="SourceAlpha"/><feGaussianBlur result="blur-3" stdDeviation="5"/><feFlood flood-color="#1b4c7e" flood-opacity=".455"/><feComposite in2="blur-3" operator="in"/><feComposite in="SourceGraphic"/></filter><filter id="Rectangle_94" width="75" height="260" x="114.5" y="6" filterUnits="userSpaceOnUse"><feOffset dx="3" dy="3" input="SourceAlpha"/><feGaussianBlur result="blur-4" stdDeviation="4.5"/><feFlood flood-color="#bababa" flood-opacity=".514"/><feComposite in2="blur-4" operator="in"/><feComposite in="SourceGraphic"/></filter><filter id="Rectangle_95" width="75" height="260" x="108.5" y="0" filterUnits="userSpaceOnUse"><feOffset dx="-3" dy="-3" input="SourceAlpha"/><feGaussianBlur result="blur-5" stdDeviation="4.5"/><feFlood flood-color="#fff" flood-opacity=".514"/><feComposite in2="blur-5" operator="in"/><feComposite in="SourceGraphic"/></filter><linearGradient id="linear-gradient-2" x1=".144" x2=".923" y1=".5" y2=".5" gradientUnits="objectBoundingBox"><stop offset="0" stop-color="#206f12"/><stop offset="1" stop-color="#91bf14"/></linearGradient><filter id="Tracé_4" width="67.745" height="183.417" x="115.185" y="75.773" filterUnits="userSpaceOnUse"><feOffset input="SourceAlpha"/><feGaussianBlur result="blur-6" stdDeviation="5"/><feFlood flood-color="#3ba22e" flood-opacity=".455"/><feComposite in2="blur-6" operator="in"/><feComposite in="SourceGraphic"/></filter><filter id="Rectangle_97" width="74" height="260" x="178.5" y="6" filterUnits="userSpaceOnUse"><feOffset dx="3" dy="3" input="SourceAlpha"/><feGaussianBlur result="blur-7" stdDeviation="4.5"/><feFlood flood-color="#bababa" flood-opacity=".514"/><feComposite in2="blur-7" operator="in"/><feComposite in="SourceGraphic"/></filter><filter id="Rectangle_98" width="74" height="260" x="172.5" y="0" filterUnits="userSpaceOnUse"><feOffset dx="-3" dy="-3" input="SourceAlpha"/><feGaussianBlur result="blur-8" stdDeviation="4.5"/><feFlood flood-color="#fff" flood-opacity=".514"/><feComposite in2="blur-8" operator="in"/><feComposite in="SourceGraphic"/></filter><linearGradient id="linear-gradient-3" x1=".144" x2=".923" y1=".5" y2=".5" gradientUnits="objectBoundingBox"><stop offset="0" stop-color="#9b2727"/><stop offset="1" stop-color="#ef0e6d"/></linearGradient><filter id="Tracé_3" width="67.745" height="183.417" x="178.5" y="75.773" filterUnits="userSpaceOnUse"><feOffset input="SourceAlpha"/><feGaussianBlur result="blur-9" stdDeviation="5"/><feFlood flood-color="#c21b48" flood-opacity=".384"/><feComposite in2="blur-9" operator="in"/><feComposite in="SourceGraphic"/></filter><filter id="Rectangle_100" width="74" height="260" x="241.5" y="6" filterUnits="userSpaceOnUse"><feOffset dx="3" dy="3" input="SourceAlpha"/><feGaussianBlur result="blur-10" stdDeviation="4.5"/><feFlood flood-color="#bababa" flood-opacity=".514"/><feComposite in2="blur-10" operator="in"/><feComposite in="SourceGraphic"/></filter><filter id="Rectangle_101" width="74" height="260" x="235.5" y="0" filterUnits="userSpaceOnUse"><feOffset dx="-3" dy="-3" input="SourceAlpha"/><feGaussianBlur result="blur-11" stdDeviation="4.5"/><feFlood flood-color="#fff" flood-opacity=".514"/><feComposite in2="blur-11" operator="in"/><feComposite in="SourceGraphic"/></filter><linearGradient id="linear-gradient-4" x1=".144" x2=".923" y1=".5" y2=".5" gradientUnits="objectBoundingBox"><stop offset="0" stop-color="#ffb37b"/><stop offset="1" stop-color="#ffe200"/></linearGradient><filter id="Tracé_2" width="67.745" height="183.417" x="241.814" y="75.773" filterUnits="userSpaceOnUse"><feOffset input="SourceAlpha"/><feGaussianBlur result="blur-12" stdDeviation="5"/><feFlood flood-color="#c5aa07" flood-opacity=".404"/><feComposite in2="blur-12" operator="in"/><feComposite in="SourceGraphic"/></filter></defs><g id="Groupe_124" data-name="Groupe 124" transform="translate(-220 -1031.5)"><g id="Groupe_91" data-name="Groupe 91" transform="translate(33 -40)"><g filter="url(#Rectangle_91)" transform="matrix(1, 0, 0, 1, 187, 1071.5)"><rect id="Rectangle_91-2" width="233" height="47" fill="#f7f7f7" data-name="Rectangle 91" rx="20" transform="translate(62 249.5) rotate(-90)"/></g><g filter="url(#Rectangle_92)" transform="matrix(1, 0, 0, 1, 187, 1071.5)"><rect id="Rectangle_92-2" width="233" height="47" fill="#f7f7f7" data-name="Rectangle 92" rx="20" transform="translate(62 249.5) rotate(-90)"/></g><g filter="url(#Rectangle_93)" transform="matrix(1, 0, 0, 1, 187, 1071.5)"><rect id="Rectangle_93-2" width="154" height="38" fill="url(#linear-gradient)" data-name="Rectangle 93" rx="19" transform="translate(67 244.5) rotate(-90)"/></g><g filter="url(#Rectangle_94)" transform="matrix(1, 0, 0, 1, 187, 1071.5)"><rect id="Rectangle_94-2" width="233" height="48" fill="#f7f7f7" data-name="Rectangle 94" rx="20" transform="translate(125 249.5) rotate(-90)"/></g><g filter="url(#Rectangle_95)" transform="matrix(1, 0, 0, 1, 187, 1071.5)"><rect id="Rectangle_95-2" width="233" height="48" fill="#f7f7f7" data-name="Rectangle 95" rx="20" transform="translate(125 249.5) rotate(-90)"/></g><g filter="url(#Tracé_4)" transform="matrix(1, 0, 0, 1, 187, 1071.5)"><path id="Tracé_4-2" fill="url(#linear-gradient-2)" d="M18.873,0H134.544a18.873,18.873,0,1,1,0,37.745H18.873A18.873,18.873,0,0,1,18.873,0Z" data-name="Tracé 4" transform="translate(130.18 244.19) rotate(-90)"/></g><g filter="url(#Rectangle_97)" transform="matrix(1, 0, 0, 1, 187, 1071.5)"><rect id="Rectangle_97-2" width="233" height="47" fill="#f7f7f7" data-name="Rectangle 97" rx="20" transform="translate(189 249.5) rotate(-90)"/></g><g filter="url(#Rectangle_98)" transform="matrix(1, 0, 0, 1, 187, 1071.5)"><rect id="Rectangle_98-2" width="233" height="47" fill="#f7f7f7" data-name="Rectangle 98" rx="20" transform="translate(189 249.5) rotate(-90)"/></g><g filter="url(#Tracé_3)" transform="matrix(1, 0, 0, 1, 187, 1071.5)"><path id="Tracé_3-2" fill="url(#linear-gradient-3)" d="M18.873,0H134.544a18.873,18.873,0,1,1,0,37.745H18.873A18.873,18.873,0,0,1,18.873,0Z" data-name="Tracé 3" transform="translate(193.5 244.19) rotate(-90)"/></g><g filter="url(#Rectangle_100)" transform="matrix(1, 0, 0, 1, 187, 1071.5)"><rect id="Rectangle_100-2" width="233" height="47" fill="#f7f7f7" data-name="Rectangle 100" rx="20" transform="translate(252 249.5) rotate(-90)"/></g><g filter="url(#Rectangle_101)" transform="matrix(1, 0, 0, 1, 187, 1071.5)"><rect id="Rectangle_101-2" width="233" height="47" fill="#f7f7f7" data-name="Rectangle 101" rx="20" transform="translate(252 249.5) rotate(-90)"/></g><g filter="url(#Tracé_2)" transform="matrix(1, 0, 0, 1, 187, 1071.5)"><path id="Tracé_2-2" fill="url(#linear-gradient-4)" d="M18.873,0H134.544a18.873,18.873,0,1,1,0,37.745H18.873A18.873,18.873,0,0,1,18.873,0Z" data-name="Tracé 2" transform="translate(256.81 244.19) rotate(-90)"/></g><text id="_" fill="#fff" data-name="🐍" font-family="AppleColorEmoji, Apple Color Emoji" font-size="15" transform="translate(328 1321)"><tspan x="0" y="19">🐍</tspan></text><text id="_2" fill="#fff" data-name="🦅" font-family="AppleColorEmoji, Apple Color Emoji" font-size="15" transform="translate(267 1323)"><tspan x="0" y="19">🦅</tspan></text><text id="_3" fill="#fff" data-name="🦁" font-family="AppleColorEmoji, Apple Color Emoji" font-size="15" transform="translate(391 1323)"><tspan x="0" y="19">🦁</tspan></text><text id="_4" fill="#fff" data-name="🦡" font-family="AppleColorEmoji, Apple Color Emoji" font-size="15" transform="translate(455 1321)"><tspan x="0" y="19">🦡</tspan></text></g><g id="Groupe_87" data-name="Groupe 87" transform="translate(-90.297 1860) rotate(-90)"><line id="Ligne_22" x2="100" fill="none" stroke="#000" stroke-width="1" data-name="Ligne 22" transform="translate(569.5 325.146)"/><g id="Rectangle_143" fill="none" stroke="#000" stroke-width="1" data-name="Rectangle 143" transform="translate(668.505 325.146) rotate(-45)"><rect width="21" height="21" stroke="none"/><rect width="20" height="20" x=".5" y=".5" fill="none"/></g><line id="Ligne_23" x2="100" fill="none" stroke="#000" stroke-width="1" data-name="Ligne 23" transform="translate(696.5 325.146)"/><g id="Ellipse_15" fill="none" stroke="#000" stroke-width="1" data-name="Ellipse 15" transform="translate(680 322)"><circle cx="3" cy="3" r="3" stroke="none"/><circle cx="3" cy="3" r="2.5" fill="none"/></g><g id="Ellipse_16" fill="none" stroke="#000" stroke-width="1" data-name="Ellipse 16" transform="translate(564 322)"><circle cx="3" cy="3" r="3" stroke="none"/><circle cx="3" cy="3" r="2.5" fill="none"/></g><g id="Ellipse_18" fill="none" stroke="#000" stroke-width="1" data-name="Ellipse 18" transform="translate(796 322.146)"><circle cx="3" cy="3" r="3" stroke="none"/><circle cx="3" cy="3" r="2.5" fill="none"/></g></g><g id="Groupe_94" data-name="Groupe 94" transform="translate(241.004 1856) rotate(-90)"><line id="Ligne_22-2" x2="100" fill="none" stroke="#000" stroke-width="1" data-name="Ligne 22" transform="translate(569.5 325.146)"/><g id="Rectangle_143-2" fill="none" stroke="#000" stroke-width="1" data-name="Rectangle 143" transform="translate(668.505 325.146) rotate(-45)"><rect width="21" height="21" stroke="none"/><rect width="20" height="20" x=".5" y=".5" fill="none"/></g><line id="Ligne_23-2" x2="100" fill="none" stroke="#000" stroke-width="1" data-name="Ligne 23" transform="translate(696.5 325.146)"/><g id="Ellipse_15-2" fill="none" stroke="#000" stroke-width="1" data-name="Ellipse 15" transform="translate(680 322)"><circle cx="3" cy="3" r="3" stroke="none"/><circle cx="3" cy="3" r="2.5" fill="none"/></g><g id="Ellipse_16-2" fill="none" stroke="#000" stroke-width="1" data-name="Ellipse 16" transform="translate(564 322)"><circle cx="3" cy="3" r="3" stroke="none"/><circle cx="3" cy="3" r="2.5" fill="none"/></g><g id="Ellipse_18-2" fill="none" stroke="#000" stroke-width="1" data-name="Ellipse 18" transform="translate(796 322.146)"><circle cx="3" cy="3" r="3" stroke="none"/><circle cx="3" cy="3" r="2.5" fill="none"/></g></g></g></svg>