<svg xmlns="http://www.w3.org/2000/svg" xmlns:xlink="http://www.w3.org/1999/xlink" width="360.999" height="279.5" viewBox="0 0 360.999 279.5">
  <defs>
    <filter id="Rectangle_91" x="51.5" y="6" width="74" height="260" filterUnits="userSpaceOnUse">
      <feOffset dx="3" dy="3" input="SourceAlpha"/>
      <feGaussianBlur stdDeviation="4.5" result="blur"/>
      <feFlood flood-color="#bababa" flood-opacity="0.514"/>
      <feComposite operator="in" in2="blur"/>
      <feComposite in="SourceGraphic"/>
    </filter>
    <filter id="Rectangle_92" x="45.5" y="0" width="74" height="260" filterUnits="userSpaceOnUse">
      <feOffset dx="-3" dy="-3" input="SourceAlpha"/>
      <feGaussianBlur stdDeviation="4.5" result="blur-2"/>
      <feFlood flood-color="#fff" flood-opacity="0.514"/>
      <feComposite operator="in" in2="blur-2"/>
      <feComposite in="SourceGraphic"/>
    </filter>
    <linearGradient id="linear-gradient" x1="0.144" y1="0.5" x2="0.923" y2="0.5" gradientUnits="objectBoundingBox">
      <stop offset="0" stop-color="#405d8d"/>
      <stop offset="1" stop-color="#1484bf"/>
    </linearGradient>
    <filter id="Rectangle_93" x="52" y="75.5" width="68" height="184" filterUnits="userSpaceOnUse">
      <feOffset input="SourceAlpha"/>
      <feGaussianBlur stdDeviation="5" result="blur-3"/>
      <feFlood flood-color="#1b4c7e" flood-opacity="0.455"/>
      <feComposite operator="in" in2="blur-3"/>
      <feComposite in="SourceGraphic"/>
    </filter>
    <filter id="Rectangle_94" x="114.5" y="6" width="75" height="260" filterUnits="userSpaceOnUse">
      <feOffset dx="3" dy="3" input="SourceAlpha"/>
      <feGaussianBlur stdDeviation="4.5" result="blur-4"/>
      <feFlood flood-color="#bababa" flood-opacity="0.514"/>
      <feComposite operator="in" in2="blur-4"/>
      <feComposite in="SourceGraphic"/>
    </filter>
    <filter id="Rectangle_95" x="108.5" y="0" width="75" height="260" filterUnits="userSpaceOnUse">
      <feOffset dx="-3" dy="-3" input="SourceAlpha"/>
      <feGaussianBlur stdDeviation="4.5" result="blur-5"/>
      <feFlood flood-color="#fff" flood-opacity="0.514"/>
      <feComposite operator="in" in2="blur-5"/>
      <feComposite in="SourceGraphic"/>
    </filter>
    <linearGradient id="linear-gradient-2" x1="0.144" y1="0.5" x2="0.923" y2="0.5" gradientUnits="objectBoundingBox">
      <stop offset="0" stop-color="#206f12"/>
      <stop offset="1" stop-color="#91bf14"/>
    </linearGradient>
    <filter id="Tracé_4" x="115.185" y="75.773" width="67.745" height="183.417" filterUnits="userSpaceOnUse">
      <feOffset input="SourceAlpha"/>
      <feGaussianBlur stdDeviation="5" result="blur-6"/>
      <feFlood flood-color="#3ba22e" flood-opacity="0.455"/>
      <feComposite operator="in" in2="blur-6"/>
      <feComposite in="SourceGraphic"/>
    </filter>
    <filter id="Rectangle_97" x="178.5" y="6" width="74" height="260" filterUnits="userSpaceOnUse">
      <feOffset dx="3" dy="3" input="SourceAlpha"/>
      <feGaussianBlur stdDeviation="4.5" result="blur-7"/>
      <feFlood flood-color="#bababa" flood-opacity="0.514"/>
      <feComposite operator="in" in2="blur-7"/>
      <feComposite in="SourceGraphic"/>
    </filter>
    <filter id="Rectangle_98" x="172.5" y="0" width="74" height="260" filterUnits="userSpaceOnUse">
      <feOffset dx="-3" dy="-3" input="SourceAlpha"/>
      <feGaussianBlur stdDeviation="4.5" result="blur-8"/>
      <feFlood flood-color="#fff" flood-opacity="0.514"/>
      <feComposite operator="in" in2="blur-8"/>
      <feComposite in="SourceGraphic"/>
    </filter>
    <linearGradient id="linear-gradient-3" x1="0.144" y1="0.5" x2="0.923" y2="0.5" gradientUnits="objectBoundingBox">
      <stop offset="0" stop-color="#9b2727"/>
      <stop offset="1" stop-color="#ef0e6d"/>
    </linearGradient>
    <filter id="Tracé_3" x="178.5" y="75.773" width="67.745" height="183.417" filterUnits="userSpaceOnUse">
      <feOffset input="SourceAlpha"/>
      <feGaussianBlur stdDeviation="5" result="blur-9"/>
      <feFlood flood-color="#c21b48" flood-opacity="0.384"/>
      <feComposite operator="in" in2="blur-9"/>
      <feComposite in="SourceGraphic"/>
    </filter>
    <filter id="Rectangle_100" x="241.5" y="6" width="74" height="260" filterUnits="userSpaceOnUse">
      <feOffset dx="3" dy="3" input="SourceAlpha"/>
      <feGaussianBlur stdDeviation="4.5" result="blur-10"/>
      <feFlood flood-color="#bababa" flood-opacity="0.514"/>
      <feComposite operator="in" in2="blur-10"/>
      <feComposite in="SourceGraphic"/>
    </filter>
    <filter id="Rectangle_101" x="235.5" y="0" width="74" height="260" filterUnits="userSpaceOnUse">
      <feOffset dx="-3" dy="-3" input="SourceAlpha"/>
      <feGaussianBlur stdDeviation="4.5" result="blur-11"/>
      <feFlood flood-color="#fff" flood-opacity="0.514"/>
      <feComposite operator="in" in2="blur-11"/>
      <feComposite in="SourceGraphic"/>
    </filter>
    <linearGradient id="linear-gradient-4" x1="0.144" y1="0.5" x2="0.923" y2="0.5" gradientUnits="objectBoundingBox">
      <stop offset="0" stop-color="#ffb37b"/>
      <stop offset="1" stop-color="#ffe200"/>
    </linearGradient>
    <filter id="Tracé_2" x="241.814" y="75.773" width="67.745" height="183.417" filterUnits="userSpaceOnUse">
      <feOffset input="SourceAlpha"/>
      <feGaussianBlur stdDeviation="5" result="blur-12"/>
      <feFlood flood-color="#c5aa07" flood-opacity="0.404"/>
      <feComposite operator="in" in2="blur-12"/>
      <feComposite in="SourceGraphic"/>
    </filter>
  </defs>
  <g id="Groupe_124" data-name="Groupe 124" transform="translate(-220 -1031.5)">
    <g id="Groupe_91" data-name="Groupe 91" transform="translate(33 -40)">
      <g transform="matrix(1, 0, 0, 1, 187, 1071.5)" filter="url(#Rectangle_91)">
        <rect id="Rectangle_91-2" data-name="Rectangle 91" width="233" height="47" rx="20" transform="translate(62 249.5) rotate(-90)" fill="#f7f7f7"/>
      </g>
      <g transform="matrix(1, 0, 0, 1, 187, 1071.5)" filter="url(#Rectangle_92)">
        <rect id="Rectangle_92-2" data-name="Rectangle 92" width="233" height="47" rx="20" transform="translate(62 249.5) rotate(-90)" fill="#f7f7f7"/>
      </g>
      <g transform="matrix(1, 0, 0, 1, 187, 1071.5)" filter="url(#Rectangle_93)">
        <rect id="Rectangle_93-2" data-name="Rectangle 93" width="154" height="38" rx="19" transform="translate(67 244.5) rotate(-90)" fill="url(#linear-gradient)"/>
      </g>
      <g transform="matrix(1, 0, 0, 1, 187, 1071.5)" filter="url(#Rectangle_94)">
        <rect id="Rectangle_94-2" data-name="Rectangle 94" width="233" height="48" rx="20" transform="translate(125 249.5) rotate(-90)" fill="#f7f7f7"/>
      </g>
      <g transform="matrix(1, 0, 0, 1, 187, 1071.5)" filter="url(#Rectangle_95)">
        <rect id="Rectangle_95-2" data-name="Rectangle 95" width="233" height="48" rx="20" transform="translate(125 249.5) rotate(-90)" fill="#f7f7f7"/>
      </g>
      <g transform="matrix(1, 0, 0, 1, 187, 1071.5)" filter="url(#Tracé_4)">
        <path id="Tracé_4-2" data-name="Tracé 4" d="M18.873,0H134.544a18.873,18.873,0,1,1,0,37.745H18.873A18.873,18.873,0,0,1,18.873,0Z" transform="translate(130.18 244.19) rotate(-90)" fill="url(#linear-gradient-2)"/>
      </g>
      <g transform="matrix(1, 0, 0, 1, 187, 1071.5)" filter="url(#Rectangle_97)">
        <rect id="Rectangle_97-2" data-name="Rectangle 97" width="233" height="47" rx="20" transform="translate(189 249.5) rotate(-90)" fill="#f7f7f7"/>
      </g>
      <g transform="matrix(1, 0, 0, 1, 187, 1071.5)" filter="url(#Rectangle_98)">
        <rect id="Rectangle_98-2" data-name="Rectangle 98" width="233" height="47" rx="20" transform="translate(189 249.5) rotate(-90)" fill="#f7f7f7"/>
      </g>
      <g transform="matrix(1, 0, 0, 1, 187, 1071.5)" filter="url(#Tracé_3)">
        <path id="Tracé_3-2" data-name="Tracé 3" d="M18.873,0H134.544a18.873,18.873,0,1,1,0,37.745H18.873A18.873,18.873,0,0,1,18.873,0Z" transform="translate(193.5 244.19) rotate(-90)" fill="url(#linear-gradient-3)"/>
      </g>
      <g transform="matrix(1, 0, 0, 1, 187, 1071.5)" filter="url(#Rectangle_100)">
        <rect id="Rectangle_100-2" data-name="Rectangle 100" width="233" height="47" rx="20" transform="translate(252 249.5) rotate(-90)" fill="#f7f7f7"/>
      </g>
      <g transform="matrix(1, 0, 0, 1, 187, 1071.5)" filter="url(#Rectangle_101)">
        <rect id="Rectangle_101-2" data-name="Rectangle 101" width="233" height="47" rx="20" transform="translate(252 249.5) rotate(-90)" fill="#f7f7f7"/>
      </g>
      <g transform="matrix(1, 0, 0, 1, 187, 1071.5)" filter="url(#Tracé_2)">
        <path id="Tracé_2-2" data-name="Tracé 2" d="M18.873,0H134.544a18.873,18.873,0,1,1,0,37.745H18.873A18.873,18.873,0,0,1,18.873,0Z" transform="translate(256.81 244.19) rotate(-90)" fill="url(#linear-gradient-4)"/>
      </g>
      <text id="_" data-name="🐍" transform="translate(328 1321)" fill="#fff" font-size="15" font-family="AppleColorEmoji, Apple Color Emoji"><tspan x="0" y="19">🐍</tspan></text>
      <text id="_2" data-name="🦅" transform="translate(267 1323)" fill="#fff" font-size="15" font-family="AppleColorEmoji, Apple Color Emoji"><tspan x="0" y="19">🦅</tspan></text>
      <text id="_3" data-name="🦁" transform="translate(391 1323)" fill="#fff" font-size="15" font-family="AppleColorEmoji, Apple Color Emoji"><tspan x="0" y="19">🦁</tspan></text>
      <text id="_4" data-name="🦡" transform="translate(455 1321)" fill="#fff" font-size="15" font-family="AppleColorEmoji, Apple Color Emoji"><tspan x="0" y="19">🦡</tspan></text>
    </g>
    <g id="Groupe_87" data-name="Groupe 87" transform="translate(-90.297 1860) rotate(-90)">
      <line id="Ligne_22" data-name="Ligne 22" x2="100" transform="translate(569.5 325.146)" fill="none" stroke="#000" stroke-width="1"/>
      <g id="Rectangle_143" data-name="Rectangle 143" transform="translate(668.505 325.146) rotate(-45)" fill="none" stroke="#000" stroke-width="1">
        <rect width="21" height="21" stroke="none"/>
        <rect x="0.5" y="0.5" width="20" height="20" fill="none"/>
      </g>
      <line id="Ligne_23" data-name="Ligne 23" x2="100" transform="translate(696.5 325.146)" fill="none" stroke="#000" stroke-width="1"/>
      <g id="Ellipse_15" data-name="Ellipse 15" transform="translate(680 322)" fill="none" stroke="#000" stroke-width="1">
        <circle cx="3" cy="3" r="3" stroke="none"/>
        <circle cx="3" cy="3" r="2.5" fill="none"/>
      </g>
      <g id="Ellipse_16" data-name="Ellipse 16" transform="translate(564 322)" fill="none" stroke="#000" stroke-width="1">
        <circle cx="3" cy="3" r="3" stroke="none"/>
        <circle cx="3" cy="3" r="2.5" fill="none"/>
      </g>
      <g id="Ellipse_18" data-name="Ellipse 18" transform="translate(796 322.146)" fill="none" stroke="#000" stroke-width="1">
        <circle cx="3" cy="3" r="3" stroke="none"/>
        <circle cx="3" cy="3" r="2.5" fill="none"/>
      </g>
    </g>
    <g id="Groupe_94" data-name="Groupe 94" transform="translate(241.004 1856) rotate(-90)">
      <line id="Ligne_22-2" data-name="Ligne 22" x2="100" transform="translate(569.5 325.146)" fill="none" stroke="#000" stroke-width="1"/>
      <g id="Rectangle_143-2" data-name="Rectangle 143" transform="translate(668.505 325.146) rotate(-45)" fill="none" stroke="#000" stroke-width="1">
        <rect width="21" height="21" stroke="none"/>
        <rect x="0.5" y="0.5" width="20" height="20" fill="none"/>
      </g>
      <line id="Ligne_23-2" data-name="Ligne 23" x2="100" transform="translate(696.5 325.146)" fill="none" stroke="#000" stroke-width="1"/>
      <g id="Ellipse_15-2" data-name="Ellipse 15" transform="translate(680 322)" fill="none" stroke="#000" stroke-width="1">
        <circle cx="3" cy="3" r="3" stroke="none"/>
        <circle cx="3" cy="3" r="2.5" fill="none"/>
      </g>
      <g id="Ellipse_16-2" data-name="Ellipse 16" transform="translate(564 322)" fill="none" stroke="#000" stroke-width="1">
        <circle cx="3" cy="3" r="3" stroke="none"/>
        <circle cx="3" cy="3" r="2.5" fill="none"/>
      </g>
      <g id="Ellipse_18-2" data-name="Ellipse 18" transform="translate(796 322.146)" fill="none" stroke="#000" stroke-width="1">
        <circle cx="3" cy="3" r="3" stroke="none"/>
        <circle cx="3" cy="3" r="2.5" fill="none"/>
      </g>
    </g>
  </g>
</svg>
