<svg xmlns="http://www.w3.org/2000/svg" width="238" height="1491.198" viewBox="0 0 238 1491.198">
  <g id="Groupe_123" data-name="Groupe 123" transform="translate(-564 -932.151)">
    <g id="Groupe_99" data-name="Groupe 99" transform="translate(1366 1272.146) rotate(180)">
      <line id="Ligne_22" data-name="Ligne 22" x2="100" transform="translate(569.5 325.146)" fill="none" stroke="#000" stroke-width="1"/>
      <g id="Rectangle_143" data-name="Rectangle 143" transform="translate(668.505 325.146) rotate(-45)" fill="none" stroke="#000" stroke-width="1">
        <rect width="21" height="21" stroke="none"/>
        <rect x="0.5" y="0.5" width="20" height="20" fill="none"/>
      </g>
      <line id="Ligne_23" data-name="Ligne 23" x2="100" transform="translate(696.5 325.146)" fill="none" stroke="#000" stroke-width="1"/>
      <g id="Ellipse_15" data-name="Ellipse 15" transform="translate(680 322)" fill="none" stroke="#000" stroke-width="1">
        <circle cx="3" cy="3" r="3" stroke="none"/>
        <circle cx="3" cy="3" r="2.5" fill="none"/>
      </g>
      <g id="Ellipse_16" data-name="Ellipse 16" transform="translate(564 322)" fill="none" stroke="#000" stroke-width="1">
        <circle cx="3" cy="3" r="3" stroke="none"/>
        <circle cx="3" cy="3" r="2.5" fill="none"/>
      </g>
      <g id="Ellipse_18" data-name="Ellipse 18" transform="translate(796 322.146)" fill="none" stroke="#000" stroke-width="1">
        <circle cx="3" cy="3" r="3" stroke="none"/>
        <circle cx="3" cy="3" r="2.5" fill="none"/>
      </g>
    </g>
    <line id="Ligne_33" data-name="Ligne 33" x1="0.5" y1="1432.65" transform="translate(683 961.85)" fill="none" stroke="#000" stroke-width="1"/>
    <g id="Rectangle_147" data-name="Rectangle 147" transform="translate(698.348 2408.5) rotate(135)" fill="none" stroke="#000" stroke-width="1">
      <rect width="21" height="21" stroke="none"/>
      <rect x="0.5" y="0.5" width="20" height="20" fill="none"/>
    </g>
    <g id="Ellipse_22" data-name="Ellipse 22" transform="translate(686.854 2411.646) rotate(180)" fill="none" stroke="#000" stroke-width="1">
      <circle cx="3" cy="3" r="3" stroke="none"/>
      <circle cx="3" cy="3" r="2.5" fill="none"/>
    </g>
  </g>
</svg>
