<svg xmlns="http://www.w3.org/2000/svg" xmlns:xlink="http://www.w3.org/1999/xlink" width="56" height="56" viewBox="0 0 56 56"><defs><filter id="Neuo_dark_shade_" width="44" height="44" x="10" y="10" filterUnits="userSpaceOnUse"><feOffset dx="1" dy="1" input="SourceAlpha"/><feGaussianBlur result="blur" stdDeviation="1"/><feFlood flood-opacity=".161"/><feComposite in2="blur" operator="in"/><feComposite in="SourceGraphic"/></filter><filter id="Neuo_white_shade_" width="44" height="44" x="8" y="8" filterUnits="userSpaceOnUse"><feOffset dx="-1" dy="-1" input="SourceAlpha"/><feGaussianBlur result="blur-2" stdDeviation="1"/><feFlood flood-color="#fff"/><feComposite in2="blur-2" operator="in"/><feComposite in="SourceGraphic"/></filter><filter id="Button_background" width="56" height="56" x="0" y="0" filterUnits="userSpaceOnUse"><feOffset dx="-3" dy="-3" input="SourceAlpha"/><feGaussianBlur result="blur-3" stdDeviation="3"/><feFlood flood-color="#fff"/><feComposite in2="blur-3" operator="in"/><feComposite in="SourceGraphic"/></filter><linearGradient id="linear-gradient" x1=".5" x2=".5" y2="1" gradientUnits="objectBoundingBox"><stop offset="0" stop-color="#9b2727"/><stop offset="1" stop-color="#ef0e6d"/></linearGradient></defs><g id="Groupe_112" data-name="Groupe 112" transform="translate(-1179 -661)"><g id="Button_round" data-name="Button round" transform="translate(1191 673)"><g id="Button" transform="translate(-131 -314)"><g filter="url(#Neuo_dark_shade_)" transform="matrix(1, 0, 0, 1, 119, 302)"><rect id="Neuo_dark_shade_2" width="38" height="38" fill="#f5f5f5" data-name="Neuo (dark shade)" rx="19" transform="translate(12 12)"/></g><g filter="url(#Neuo_white_shade_)" transform="matrix(1, 0, 0, 1, 119, 302)"><rect id="Neuo_white_shade_2" width="38" height="38" fill="#f5f5f5" data-name="Neuo (white shade)" rx="19" transform="translate(12 12)"/></g><g filter="url(#Button_background)" transform="matrix(1, 0, 0, 1, 119, 302)"><rect id="Button_background-2" width="38" height="38" fill="#f5f5f5" data-name="Button background" rx="19" transform="translate(12 12)"/></g><path id="Icon_ionic-ios-heart-empty" fill="#767575" d="M14.337,3.938H14.3a4.1,4.1,0,0,0-3.425,1.875A4.1,4.1,0,0,0,7.45,3.938H7.413A4.077,4.077,0,0,0,3.375,8.012,8.777,8.777,0,0,0,5.1,12.8a30.2,30.2,0,0,0,5.776,5.564A30.2,30.2,0,0,0,16.651,12.8a8.777,8.777,0,0,0,1.724-4.785A4.077,4.077,0,0,0,14.337,3.938Zm1.5,8.264a27.656,27.656,0,0,1-4.962,4.889A27.7,27.7,0,0,1,5.913,12.2,7.779,7.779,0,0,1,4.385,8.012,3.059,3.059,0,0,1,7.421,4.951h.032a3.023,3.023,0,0,1,1.482.389,3.151,3.151,0,0,1,1.1,1.028,1.013,1.013,0,0,0,1.695,0,3.182,3.182,0,0,1,1.1-1.028A3.023,3.023,0,0,1,14.3,4.951h.032a3.059,3.059,0,0,1,3.036,3.061A7.877,7.877,0,0,1,15.837,12.2Z" data-name="Icon ionic-ios-heart-empty" transform="translate(139.625 322.062)"/></g></g><g id="Button_round_pressed_" data-name="Button round (pressed)" transform="translate(1203 685)"><g id="Button_pressed_" data-name="Button (pressed)" transform="translate(-64 -407)"><path id="Icon_ionic-ios-heart" fill="url(#linear-gradient)" d="M14.337,3.938H14.3a4.1,4.1,0,0,0-3.425,1.875A4.1,4.1,0,0,0,7.45,3.938H7.413A4.077,4.077,0,0,0,3.375,8.012,8.777,8.777,0,0,0,5.1,12.8a30.2,30.2,0,0,0,5.776,5.564A30.2,30.2,0,0,0,16.651,12.8a8.777,8.777,0,0,0,1.724-4.785A4.077,4.077,0,0,0,14.337,3.938Z" data-name="Icon ionic-ios-heart" transform="translate(60.625 403.063)"/></g></g></g></svg>