<svg xmlns="http://www.w3.org/2000/svg" xmlns:xlink="http://www.w3.org/1999/xlink" width="56" height="56" viewBox="0 0 56 56">
  <defs>
    <filter id="Neuo_dark_shade_" x="10" y="10" width="44" height="44" filterUnits="userSpaceOnUse">
      <feOffset dx="1" dy="1" input="SourceAlpha"/>
      <feGaussianBlur stdDeviation="1" result="blur"/>
      <feFlood flood-opacity="0.161"/>
      <feComposite operator="in" in2="blur"/>
      <feComposite in="SourceGraphic"/>
    </filter>
    <filter id="Neuo_white_shade_" x="8" y="8" width="44" height="44" filterUnits="userSpaceOnUse">
      <feOffset dx="-1" dy="-1" input="SourceAlpha"/>
      <feGaussianBlur stdDeviation="1" result="blur-2"/>
      <feFlood flood-color="#fff"/>
      <feComposite operator="in" in2="blur-2"/>
      <feComposite in="SourceGraphic"/>
    </filter>
    <filter id="Button_background" x="0" y="0" width="56" height="56" filterUnits="userSpaceOnUse">
      <feOffset dx="-3" dy="-3" input="SourceAlpha"/>
      <feGaussianBlur stdDeviation="3" result="blur-3"/>
      <feFlood flood-color="#fff"/>
      <feComposite operator="in" in2="blur-3"/>
      <feComposite in="SourceGraphic"/>
    </filter>
  </defs>
  <g id="Button_round" data-name="Button round" transform="translate(12 12)">
    <g id="Button">
      <g transform="matrix(1, 0, 0, 1, -12, -12)" filter="url(#Neuo_dark_shade_)">
        <rect id="Neuo_dark_shade_2" data-name="Neuo (dark shade)" width="38" height="38" rx="19" transform="translate(12 12)" fill="#f5f5f5"/>
      </g>
      <g transform="matrix(1, 0, 0, 1, -12, -12)" filter="url(#Neuo_white_shade_)">
        <rect id="Neuo_white_shade_2" data-name="Neuo (white shade)" width="38" height="38" rx="19" transform="translate(12 12)" fill="#f5f5f5"/>
      </g>
      <g transform="matrix(1, 0, 0, 1, -12, -12)" filter="url(#Button_background)">
        <rect id="Button_background-2" data-name="Button background" width="38" height="38" rx="19" transform="translate(12 12)" fill="#f5f5f5"/>
      </g>
      <path id="Icon_ionic-ios-heart-empty" data-name="Icon ionic-ios-heart-empty" d="M14.337,3.938H14.3a4.1,4.1,0,0,0-3.425,1.875A4.1,4.1,0,0,0,7.45,3.938H7.413A4.077,4.077,0,0,0,3.375,8.012,8.777,8.777,0,0,0,5.1,12.8a30.2,30.2,0,0,0,5.776,5.564A30.2,30.2,0,0,0,16.651,12.8a8.777,8.777,0,0,0,1.724-4.785A4.077,4.077,0,0,0,14.337,3.938Zm1.5,8.264a27.656,27.656,0,0,1-4.962,4.889A27.7,27.7,0,0,1,5.913,12.2,7.779,7.779,0,0,1,4.385,8.012,3.059,3.059,0,0,1,7.421,4.951h.032a3.023,3.023,0,0,1,1.482.389,3.151,3.151,0,0,1,1.1,1.028,1.013,1.013,0,0,0,1.695,0,3.182,3.182,0,0,1,1.1-1.028A3.023,3.023,0,0,1,14.3,4.951h.032a3.059,3.059,0,0,1,3.036,3.061A7.877,7.877,0,0,1,15.837,12.2Z" transform="translate(8.625 8.062)" fill="#767575"/>
    </g>
  </g>
</svg>
