<svg xmlns="http://www.w3.org/2000/svg" width="95" height="96.906" viewBox="0 0 95 96.906">
  <g id="wind-svgrepo-com" transform="translate(-5.034 0)">
    <g id="Groupe_159" data-name="Groupe 159" transform="translate(16.634 79.902)">
      <g id="Groupe_158" data-name="Groupe 158" transform="translate(0)">
        <path id="Tracé_66" data-name="Tracé 66" d="M69.584,423.217a1.69,1.69,0,0,0-.357-.545,1.766,1.766,0,0,0-.272-.221,1.465,1.465,0,0,0-.289-.153l-.306-.1a1.7,1.7,0,0,0-1.547.477,1.673,1.673,0,0,0-.358.545,1.688,1.688,0,0,0,2.211,2.227,2.018,2.018,0,0,0,.561-.374,1.686,1.686,0,0,0,.493-1.207A1.709,1.709,0,0,0,69.584,423.217Z" transform="translate(-66.32 -422.161)"/>
      </g>
    </g>
    <g id="Groupe_161" data-name="Groupe 161" transform="translate(26.834 83.318)">
      <g id="Groupe_160" data-name="Groupe 160">
        <path id="Tracé_67" data-name="Tracé 67" d="M123.48,441.247a1.693,1.693,0,0,0-.357-.545,1.713,1.713,0,0,0-.561-.374,1.732,1.732,0,0,0-1.853.374,1.677,1.677,0,0,0-.358.545,1.7,1.7,0,1,0,3.265.646A1.429,1.429,0,0,0,123.48,441.247Z" transform="translate(-120.216 -440.206)"/>
      </g>
    </g>
    <g id="Groupe_163" data-name="Groupe 163" transform="translate(35.336 88.418)">
      <g id="Groupe_162" data-name="Groupe 162" transform="translate(0)">
        <path id="Tracé_68" data-name="Tracé 68" d="M168.4,468.2a1.692,1.692,0,0,0-.357-.545,1.74,1.74,0,0,0-1.854-.374,1.71,1.71,0,0,0-.56.374,1.672,1.672,0,0,0-.358.545,1.7,1.7,0,0,0-.135.646,1.718,1.718,0,0,0,.135.662,1.68,1.68,0,0,0,.358.545,1.705,1.705,0,0,0,2.414,0,1.69,1.69,0,0,0,.357-.545,1.45,1.45,0,0,0,.136-.662A1.426,1.426,0,0,0,168.4,468.2Z" transform="translate(-165.132 -467.155)"/>
      </g>
    </g>
    <g id="Groupe_165" data-name="Groupe 165" transform="translate(20.034 93.505)">
      <g id="Groupe_164" data-name="Groupe 164" transform="translate(0)">
        <path id="Tracé_69" data-name="Tracé 69" d="M87.65,495.409a1.046,1.046,0,0,0-.1-.322.933.933,0,0,0-.153-.289,1.586,1.586,0,0,0-.2-.256,1.766,1.766,0,0,0-.272-.221,1.465,1.465,0,0,0-.289-.153l-.306-.1a1.627,1.627,0,0,0-.986.1,1.688,1.688,0,0,0-.918,2.227,1.722,1.722,0,0,0,2.211.918,1.709,1.709,0,0,0,.561-.374,1.689,1.689,0,0,0,.357-.545,1.719,1.719,0,0,0,.136-.662A2.107,2.107,0,0,0,87.65,495.409Z" transform="translate(-84.284 -494.032)"/>
      </g>
    </g>
    <g id="Groupe_167" data-name="Groupe 167" transform="translate(33.635 69.716)">
      <g id="Groupe_166" data-name="Groupe 166" transform="translate(0)">
        <path id="Tracé_70" data-name="Tracé 70" d="M159.054,368.84a1.734,1.734,0,0,0-1.854-.374,1.695,1.695,0,0,0-1.054,1.564,1.459,1.459,0,0,0,.135.662,1.689,1.689,0,0,0,3.129,0,1.45,1.45,0,0,0,.136-.662A1.715,1.715,0,0,0,159.054,368.84Z" transform="translate(-156.147 -368.343)"/>
      </g>
    </g>
    <g id="Groupe_169" data-name="Groupe 169" transform="translate(52.337 34.024)">
      <g id="Groupe_168" data-name="Groupe 168">
        <path id="Tracé_71" data-name="Tracé 71" d="M258.224,180.792a1.7,1.7,0,0,0-.357-.544,1.746,1.746,0,0,0-2.414,0,1.714,1.714,0,0,0-.493,1.191,1.754,1.754,0,0,0,.493,1.207,1.688,1.688,0,0,0,2.771-.545,1.543,1.543,0,0,0,.136-.662A1.422,1.422,0,0,0,258.224,180.792Z" transform="translate(-254.96 -179.764)"/>
      </g>
    </g>
    <g id="Groupe_171" data-name="Groupe 171" transform="translate(60.839 25.503)">
      <g id="Groupe_170" data-name="Groupe 170">
        <path id="Tracé_72" data-name="Tracé 72" d="M303.242,136.114a1.051,1.051,0,0,0-.1-.324.961.961,0,0,0-.154-.289,1.619,1.619,0,0,0-.2-.255,3.167,3.167,0,0,0-.255-.221,2.476,2.476,0,0,0-.306-.154,2.2,2.2,0,0,0-.306-.1,1.74,1.74,0,0,0-1.547.476,1.714,1.714,0,0,0-.493,1.191,1.78,1.78,0,0,0,.135.662,1.691,1.691,0,0,0,.358.545,2.019,2.019,0,0,0,.56.374,1.668,1.668,0,0,0,.647.119,1.208,1.208,0,0,0,.34-.034,2.1,2.1,0,0,0,.306-.086l.306-.153a3.131,3.131,0,0,0,.255-.221,1.758,1.758,0,0,0,.493-1.207A2.135,2.135,0,0,0,303.242,136.114Z" transform="translate(-299.876 -134.742)"/>
      </g>
    </g>
    <g id="Groupe_173" data-name="Groupe 173" transform="translate(71.04 17.005)">
      <g id="Groupe_172" data-name="Groupe 172">
        <path id="Tracé_73" data-name="Tracé 73" d="M357.141,91.213a1.05,1.05,0,0,0-.1-.324.962.962,0,0,0-.154-.289,1.026,1.026,0,0,0-.2-.255,1.7,1.7,0,0,0-1.854-.374,1.549,1.549,0,0,0-.56.374,1.659,1.659,0,0,0-.2.255.958.958,0,0,0-.154.289,1.02,1.02,0,0,0-.1.324,2.025,2.025,0,0,0-.034.323,2.246,2.246,0,0,0,.034.34,1.172,1.172,0,0,0,.1.323,1.206,1.206,0,0,0,.154.29l.2.255a1.793,1.793,0,0,0,.56.374,1.806,1.806,0,0,0,1.293,0,2.018,2.018,0,0,0,.561-.374,1.758,1.758,0,0,0,.493-1.207A2.161,2.161,0,0,0,357.141,91.213Z" transform="translate(-353.775 -89.844)"/>
      </g>
    </g>
    <g id="Groupe_175" data-name="Groupe 175" transform="translate(52.337 11.901)">
      <g id="Groupe_174" data-name="Groupe 174">
        <path id="Tracé_74" data-name="Tracé 74" d="M258.224,63.926a1.7,1.7,0,0,0-.357-.544,1.727,1.727,0,0,0-1.547-.476,2.206,2.206,0,0,0-.306.1,2.561,2.561,0,0,0-.305.153,2.9,2.9,0,0,0-.255.221,1.678,1.678,0,0,0-.358.544,1.7,1.7,0,0,0-.135.647,1.78,1.78,0,0,0,.135.662,1.685,1.685,0,0,0,.358.545,2.926,2.926,0,0,0,.255.221l.305.153a2.123,2.123,0,0,0,.306.086,1.213,1.213,0,0,0,.34.034,1.655,1.655,0,0,0,1.564-1.038,1.785,1.785,0,0,0,.136-.662A1.7,1.7,0,0,0,258.224,63.926Z" transform="translate(-254.96 -62.878)"/>
      </g>
    </g>
    <g id="Groupe_177" data-name="Groupe 177" transform="translate(77.841 30.598)">
      <g id="Groupe_176" data-name="Groupe 176">
        <path id="Tracé_75" data-name="Tracé 75" d="M393.072,163.041a1.05,1.05,0,0,0-.1-.324.962.962,0,0,0-.154-.289,1.618,1.618,0,0,0-.2-.255,1.715,1.715,0,0,0-.561-.374,1.63,1.63,0,0,0-.986-.1,2.2,2.2,0,0,0-.306.1,2.563,2.563,0,0,0-.305.153,2.877,2.877,0,0,0-.255.221,1.714,1.714,0,0,0-.493,1.191,1.779,1.779,0,0,0,.135.662,1.688,1.688,0,0,0,.358.545,1.318,1.318,0,0,0,.255.2,2.746,2.746,0,0,0,.305.17,2.1,2.1,0,0,0,.306.086,1.214,1.214,0,0,0,.34.034,1.712,1.712,0,0,0,1.207-.493,1.791,1.791,0,0,0,.493-1.207A2.162,2.162,0,0,0,393.072,163.041Z" transform="translate(-389.706 -161.664)"/>
      </g>
    </g>
    <g id="Groupe_179" data-name="Groupe 179" transform="translate(8.132 0)">
      <g id="Groupe_178" data-name="Groupe 178">
        <path id="Tracé_76" data-name="Tracé 76" d="M50.385,8.9C48.46,6.379,45.574,5.1,41.8,5.1,29.222,5.1,24.341.534,24.3.5a1.7,1.7,0,0,0-2.9,1.356C21.594,3.9,23.5,21.876,32.969,23.77l17,3.4c.012,0,.023,0,.035,0a1.691,1.691,0,0,0,.3.03,1.711,1.711,0,0,0,.248-.02l.064-.011a1.684,1.684,0,0,0,.2-.051l.04-.012a1.658,1.658,0,0,0,.2-.085c.006,0,.011-.008.017-.011a1.712,1.712,0,0,0,.26-.164c.024-.019.045-.041.068-.061a1.709,1.709,0,0,0,.156-.149c.026-.03.05-.061.075-.092a1.679,1.679,0,0,0,.109-.156c.021-.034.041-.069.06-.105a1.71,1.71,0,0,0,.076-.171c.015-.039.03-.077.043-.117,0-.016.013-.031.017-.048C52.068,25.5,54.91,14.822,50.385,8.9Zm-.97,11.773c-7.08-10.142-15.971-8.816-16.392-8.746a1.7,1.7,0,1,0,.559,3.354c.076-.013,7.409-1.107,13.373,7.82L33.636,20.436c-4.78-.956-7.3-9.459-8.339-15.274C28.362,6.717,33.652,8.5,41.8,8.5c2.689,0,4.611.8,5.876,2.457C49.634,13.512,49.723,17.564,49.415,20.671Z" transform="translate(-21.401 0)"/>
      </g>
    </g>
    <g id="Groupe_181" data-name="Groupe 181" transform="translate(42.86 28.903)">
      <g id="Groupe_180" data-name="Groupe 180">
        <path id="Tracé_77" data-name="Tracé 77" d="M259.436,167.478c-4.693-4.572-14.848-4.948-30.182-1.115-14.514,3.627-18.847,1.223-20.136-.536-2.168-2.954.416-8.6,1.6-10.528a1.7,1.7,0,0,0-2.9-1.78c-.222.361-5.4,8.911-1.445,14.312,3.231,4.411,10.984,5.013,23.708,1.83,18.42-4.6,24.788-1.845,26.941.211a5.238,5.238,0,0,1,1.591,4.573,1.7,1.7,0,0,0,1.291,2.029,1.77,1.77,0,0,0,.37.04,1.7,1.7,0,0,0,1.658-1.332A8.659,8.659,0,0,0,259.436,167.478Z" transform="translate(-204.887 -152.709)"/>
      </g>
    </g>
    <g id="Groupe_183" data-name="Groupe 183" transform="translate(51.456 63.22)">
      <g id="Groupe_182" data-name="Groupe 182">
        <path id="Tracé_78" data-name="Tracé 78" d="M298.064,340.819c-.727-.51-18.028-12.376-35.739-3.528-12,6-12.336,13.022-11.924,15.763.716,4.757,5.018,8.589,10.7,9.537a13,13,0,0,0,2.129.189,5.927,5.927,0,0,0,4.958-2.092c2.779-3.538.164-9.929-.144-10.645a1.7,1.7,0,0,0-3.126,1.337c.717,1.687,1.806,5.668.594,7.211-.741.94-2.5.87-3.851.646-4.231-.706-7.405-3.394-7.9-6.69-.638-4.241,3.037-8.694,10.082-12.215,15.867-7.935,32.108,3.16,32.27,3.274a1.7,1.7,0,0,0,1.949-2.788Z" transform="translate(-250.302 -334.023)"/>
      </g>
    </g>
    <g id="Groupe_185" data-name="Groupe 185" transform="translate(5.034 34.887)">
      <g id="Groupe_184" data-name="Groupe 184" transform="translate(0)">
        <path id="Tracé_79" data-name="Tracé 79" d="M98.89,207.371c-1.208-.5-29.934-12.026-59.178,1.734-9.54,4.493-18.718,4.157-25.176-.91-4.431-3.475-6.811-8.762-5.923-13.152.66-3.265,3-5.535,6.768-6.562,4.71-1.286,8.2-.937,10.386,1.031,4.148,3.739,2.8,12.267,2.79,12.353a1.7,1.7,0,0,0,3.355.556c.071-.423,1.666-10.434-3.859-15.426-3.1-2.8-7.663-3.4-13.568-1.795-5.018,1.369-8.287,4.625-9.206,9.168-1.136,5.62,1.74,12.252,7.158,16.5a22.859,22.859,0,0,0,14.356,4.788,33.928,33.928,0,0,0,14.366-3.475c27.855-13.108,56.155-1.782,56.436-1.667a1.7,1.7,0,0,0,1.294-3.145Z" transform="translate(-5.034 -184.322)"/>
      </g>
    </g>
  </g>
</svg>
