<svg xmlns="http://www.w3.org/2000/svg" xmlns:xlink="http://www.w3.org/1999/xlink" width="56" height="56" viewBox="0 0 56 56"><defs><filter id="Neuo_dark_shade_" width="44" height="44" x="10" y="10" filterUnits="userSpaceOnUse"><feOffset dx="1" dy="1" input="SourceAlpha"/><feGaussianBlur result="blur" stdDeviation="1"/><feFlood flood-opacity=".161"/><feComposite in2="blur" operator="in"/><feComposite in="SourceGraphic"/></filter><filter id="Neuo_white_shade_" width="44" height="44" x="8" y="8" filterUnits="userSpaceOnUse"><feOffset dx="-1" dy="-1" input="SourceAlpha"/><feGaussianBlur result="blur-2" stdDeviation="1"/><feFlood flood-color="#fff"/><feComposite in2="blur-2" operator="in"/><feComposite in="SourceGraphic"/></filter><filter id="Button_background" width="56" height="56" x="0" y="0" filterUnits="userSpaceOnUse"><feOffset dx="-3" dy="-3" input="SourceAlpha"/><feGaussianBlur result="blur-3" stdDeviation="3"/><feFlood flood-color="#fff"/><feComposite in2="blur-3" operator="in"/><feComposite in="SourceGraphic"/></filter></defs><g id="Groupe_80" data-name="Groupe 80" transform="translate(-1198 -6)"><g id="Button_round" data-name="Button round" transform="translate(1210 18)"><g id="Button"><g filter="url(#Neuo_dark_shade_)" transform="translate(-131 -314) matrix(1, 0, 0, 1, 119, 302)"><rect id="Neuo_dark_shade_2" width="38" height="38" fill="#f5f5f5" data-name="Neuo (dark shade)" rx="19" transform="translate(12 12)"/></g><g filter="url(#Neuo_white_shade_)" transform="translate(-131 -314) matrix(1, 0, 0, 1, 119, 302)"><rect id="Neuo_white_shade_2" width="38" height="38" fill="#f5f5f5" data-name="Neuo (white shade)" rx="19" transform="translate(12 12)"/></g><g filter="url(#Button_background)" transform="translate(-131 -314) matrix(1, 0, 0, 1, 119, 302)"><rect id="Button_background-2" width="38" height="38" fill="#f5f5f5" data-name="Button background" rx="19" transform="translate(12 12)"/></g></g></g><g id="Icon_feather-search" data-name="Icon feather-search" transform="translate(1216.845 24.653)"><path id="Tracé_57" fill="none" stroke="#000" stroke-linecap="round" stroke-linejoin="round" stroke-width="2" d="M18.109,11.3a6.8,6.8,0,1,1-6.8-6.8,6.8,6.8,0,0,1,6.8,6.8Z" data-name="Tracé 57"/><path id="Tracé_58" fill="none" stroke="#000" stroke-linecap="round" stroke-linejoin="round" stroke-width="2" d="M28.675,28.675l-3.7-3.7" data-name="Tracé 58" transform="translate(-8.865 -8.865)"/></g></g></svg>