<svg id="ekCL0rmUvxB1" xmlns="http://www.w3.org/2000/svg" xmlns:xlink="http://www.w3.org/1999/xlink" viewBox="0 0 237 29.698000" shape-rendering="geometricPrecision" text-rendering="geometricPrecision" width="237" height="29.698000"><style><![CDATA[#ekCL0rmUvxB3_ts {animation: ekCL0rmUvxB3_ts__ts 1000ms linear 1 normal forwards}@keyframes ekCL0rmUvxB3_ts__ts { 0% {transform: translate(669.505000px,325px) scale(0.021720,1)} 90% {transform: translate(669.505000px,325px) scale(1.010026,1)} 100% {transform: translate(669.505000px,325px) scale(1.010026,1)}} #ekCL0rmUvxB7_ts {animation: ekCL0rmUvxB7_ts__ts 1000ms linear 1 normal forwards}@keyframes ekCL0rmUvxB7_ts__ts { 0% {transform: translate(696.500000px,325.146000px) scale(0.018156,-1.168674)} 90% {transform: translate(696.500000px,325.146000px) scale(0.983783,-1.168674)} 100% {transform: translate(696.500000px,325.146000px) scale(0.983783,-1.168674)}} #ekCL0rmUvxB13 {animation: ekCL0rmUvxB13_c_o 1000ms linear 1 normal forwards}@keyframes ekCL0rmUvxB13_c_o { 0% {opacity: 1} 90% {opacity: 1} 100% {opacity: 1}}]]></style><g id="ekCL0rmUvxB2" transform="matrix(1 0 0 1 -564 -310.29700000000003)"><g id="ekCL0rmUvxB3_ts" transform="translate(669.505000,325) scale(0.021720,1)"><line id="ekCL0rmUvxB3" x1="0" y1="0" x2="100" y2="0" transform="translate(-99.005000,0.146000)" fill="none" stroke="rgb(160,130,1)" stroke-width="1"/></g><g id="ekCL0rmUvxB4" transform="matrix(0.70710700000000 -0.70710700000000 0.70710700000000 0.70710700000000 668.50500000000000 325.14600000000002)"><rect id="ekCL0rmUvxB5" width="21" height="21" rx="0" ry="0" fill="none" stroke="none" stroke-width="1"/><rect id="ekCL0rmUvxB6" width="20" height="20" rx="0" ry="0" transform="matrix(1 0 0 1 0.50000000000000 0.50000000000000)" fill="none" stroke="rgb(160,130,1)" stroke-width="1"/></g><g id="ekCL0rmUvxB7_ts" transform="translate(696.500000,325.146000) scale(0.018156,-1.168674)"><line id="ekCL0rmUvxB7" x1="0" y1="0" x2="100" y2="0" transform="translate(0,0)" fill="none" stroke="rgb(160,130,1)" stroke-width="1"/></g><g id="ekCL0rmUvxB8" transform="matrix(1 0 0 1 680 322)"><circle id="ekCL0rmUvxB9" r="3" transform="matrix(1 0 0 1 3 3)" fill="none" stroke="none" stroke-width="1"/><circle id="ekCL0rmUvxB10" r="2.500000" transform="matrix(1 0 0 1 3 3)" fill="none" stroke="rgb(160,130,1)" stroke-width="1"/></g><g id="ekCL0rmUvxB11" transform="matrix(1 0 0 1 564 322)"><circle id="ekCL0rmUvxB12" r="3" transform="matrix(1 0 0 1 3 3)" fill="none" stroke="none" stroke-width="1"/><circle id="ekCL0rmUvxB13" r="2.500000" transform="matrix(1 0 0 1 3 3)" fill="none" stroke="rgb(160,130,1)" stroke-width="1"/></g><g id="ekCL0rmUvxB14" transform="matrix(1 0 0 1 795 322)"><circle id="ekCL0rmUvxB15" r="3" transform="matrix(1 0 0 1 3 3)" fill="none" stroke="none" stroke-width="1"/><circle id="ekCL0rmUvxB16" r="2.500000" transform="matrix(1 0 0 1 3 3)" fill="none" stroke="rgb(160,130,1)" stroke-width="1"/></g></g></svg>