<svg id="edQurF3c8BK1" xmlns="http://www.w3.org/2000/svg" xmlns:xlink="http://www.w3.org/1999/xlink" viewBox="0 0 237 29.698000" shape-rendering="geometricPrecision" text-rendering="geometricPrecision" width="237" height="29.698000"><style><![CDATA[#edQurF3c8BK3_ts {animation: edQurF3c8BK3_ts__ts 1000ms linear 1 normal forwards}@keyframes edQurF3c8BK3_ts__ts { 0% {transform: translate(669.505000px,325px) scale(0.021720,1)} 90% {transform: translate(669.505000px,325px) scale(1.010026,1)} 100% {transform: translate(669.505000px,325px) scale(1.010026,1)}} #edQurF3c8BK7_ts {animation: edQurF3c8BK7_ts__ts 1000ms linear 1 normal forwards}@keyframes edQurF3c8BK7_ts__ts { 0% {transform: translate(696.500000px,325.146000px) scale(0.018156,-1.168674)} 90% {transform: translate(696.500000px,325.146000px) scale(0.983783,-1.168674)} 100% {transform: translate(696.500000px,325.146000px) scale(0.983783,-1.168674)}} #edQurF3c8BK13 {animation: edQurF3c8BK13_c_o 1000ms linear 1 normal forwards}@keyframes edQurF3c8BK13_c_o { 0% {opacity: 1} 90% {opacity: 1} 100% {opacity: 1}}]]></style><g id="edQurF3c8BK2" transform="matrix(1 0 0 1 -564 -310.29700000000003)"><g id="edQurF3c8BK3_ts" transform="translate(669.505000,325) scale(0.021720,1)"><line id="edQurF3c8BK3" x1="0" y1="0" x2="100" y2="0" transform="translate(-99.005000,0.146000)" fill="none" stroke="rgb(252,252,250)" stroke-width="1"/></g><g id="edQurF3c8BK4" transform="matrix(0.70710700000000 -0.70710700000000 0.70710700000000 0.70710700000000 668.50500000000000 325.14600000000002)"><rect id="edQurF3c8BK5" width="21" height="21" rx="0" ry="0" fill="none" stroke="rgb(252,252,250)" stroke-width="1"/><rect id="edQurF3c8BK6" width="20" height="20" rx="0" ry="0" transform="matrix(1 0 0 1 0.50000000000000 0.50000000000000)" fill="none" stroke="rgb(252,252,250)" stroke-width="1"/></g><g id="edQurF3c8BK7_ts" transform="translate(696.500000,325.146000) scale(0.018156,-1.168674)"><line id="edQurF3c8BK7" x1="0" y1="0" x2="100" y2="0" transform="translate(0,0)" fill="none" stroke="rgb(252,252,250)" stroke-width="1"/></g><g id="edQurF3c8BK8" transform="matrix(1 0 0 1 680 322)"><circle id="edQurF3c8BK9" r="3" transform="matrix(1 0 0 1 3 3)" fill="none" stroke="rgb(252,252,250)" stroke-width="1"/><circle id="edQurF3c8BK10" r="2.500000" transform="matrix(1 0 0 1 3 3)" fill="none" stroke="rgb(252,252,250)" stroke-width="1"/></g><g id="edQurF3c8BK11" transform="matrix(1 0 0 1 564 322)"><circle id="edQurF3c8BK12" r="3" transform="matrix(1 0 0 1 3 3)" fill="none" stroke="none" stroke-width="1"/><circle id="edQurF3c8BK13" r="2.500000" transform="matrix(1 0 0 1 3 3)" fill="none" stroke="rgb(252,252,250)" stroke-width="1"/></g><g id="edQurF3c8BK14" transform="matrix(1 0 0 1 795 322)"><circle id="edQurF3c8BK15" r="3" transform="matrix(1 0 0 1 3 3)" fill="none" stroke="rgb(252,252,250)" stroke-width="1"/><circle id="edQurF3c8BK16" r="2.500000" transform="matrix(1 0 0 1 3 3)" fill="none" stroke="rgb(252,252,250)" stroke-width="1"/></g></g></svg>